<?xml version="1.0" encoding="UTF-8" standalone="no"?>
<svg xmlns="http://www.w3.org/2000/svg" xmlns:xlink="http://www.w3.org/1999/xlink" height="410" version="1.1" width="240" style="overflow: hidden; position: absolute; left: -0.5px;" xml:space="preserve" viewBox="170 75 240 410" preserveAspectRatio="xMidYMid meet" preserveaspectratio="xMinYMin meet" x="170" y="75"><desc>Created with LiveArt HTML5</desc><defs><link xmlns="http://www.w3.org/1999/xhtml" href="http://hive.liveartdesigner.com/~quiller/LAJS/fonts/fonts.css" type="text/css" rel="stylesheet"/><clipPath id="06E4B426-2B23-4C27-9E84-E301A9EFC2F4"><rect x="170" y="75" width="240" height="410" transform="matrix(1,0,0,1,-290,-280)"/></clipPath><clipPath id="62333DD9-1414-4887-8C6E-2A99CF4C3247"><rect x="170" y="75" width="240" height="410" transform="matrix(1,0,0,1,-290,-280)"/></clipPath><clipPath id="A60BBDDD-4D1A-4E81-BCB4-CB5C175759BB"><rect x="170" y="75" width="240" height="410" transform="matrix(1,0,0,1,0,0)"/></clipPath><clipPath id="0C99ACF1-0A3F-4FE6-A537-ACF62C7E5D81"><rect x="170" y="75" width="240" height="410" transform="matrix(1,0,0,1,0,0)"/></clipPath><clipPath id="DBBD9C3C-B610-49F8-9634-E83C1CB9ABE7"><rect x="170" y="75" width="240" height="410" transform="matrix(1,0,0,1,0,0)"/></clipPath><clipPath id="7F9C29E7-F773-4727-96F3-CBFC6FB7DDE7"><rect x="170" y="75" width="240" height="410" transform="matrix(1,0,0,1,0,0)"/></clipPath><clipPath id="D4727CF6-8223-4F40-9970-8D99BC4A9C9A"><rect x="170" y="75" width="240" height="410" transform="matrix(1,0,0,1,0,0)"/></clipPath><clipPath id="60B4EB3D-1949-4F59-81F2-5F4C665969CC"><rect x="170" y="75" width="240" height="410" transform="matrix(1,0,0,1,0,0)"/></clipPath><clipPath id="0AE4B1B3-C4A0-44EB-91F4-C345799D4E9E"><rect x="170" y="75" width="240" height="410" transform="matrix(1,0,0,1,0,0)"/></clipPath><clipPath id="A8195D76-2A96-4AF7-AE74-166EEF571D1E"><rect x="170" y="75" width="240" height="410" transform="matrix(1,0,0,1,0,0)"/></clipPath><clipPath id="7A2B8A7C-34E4-4A8C-BC50-DBEB39AC14C7"><rect x="170" y="75" width="240" height="410" transform="matrix(1,0,0,1,0,0)"/></clipPath><clipPath id="32444568-3443-4509-BA7A-DEF0BA28A113"><rect x="170" y="75" width="240" height="410" transform="matrix(1,0,0,1,0,0)"/></clipPath><clipPath id="7BB0168B-30CD-4A48-94C2-5CD10B72435B"><rect x="170" y="75" width="240" height="410" transform="matrix(1,0,0,1,0,0)"/></clipPath><clipPath id="941883AA-8AFF-42E9-9E25-2981C5A498F4"><rect x="170" y="75" width="240" height="410" transform="matrix(1,0,0,1,0,0)"/></clipPath><clipPath id="2D807571-22F6-4C7E-9F10-284644D5361F"><rect x="170" y="75" width="240" height="410" transform="matrix(1,0,0,1,0,0)"/></clipPath><clipPath id="9F5EDAA9-73C6-49C1-9807-DDD0B3695153"><rect x="170" y="75" width="240" height="410" transform="matrix(1,0,0,1,0,0)"/></clipPath><clipPath id="BFF98047-4325-477B-B58E-FF26453C4DC2"><rect x="170" y="75" width="240" height="410" transform="matrix(1,0,0,1,0,0)"/></clipPath><clipPath id="E4FAC0FE-DDB6-4681-BA2F-51C4540031D0"><rect x="170" y="75" width="240" height="410" transform="matrix(1,0,0,1,0,0)"/></clipPath><clipPath id="D2F2655B-742E-4C2A-8917-B1A327815401"><rect x="170" y="75" width="240" height="410" transform="matrix(1,0,0,1,0,0)"/></clipPath><clipPath id="42B4E5DF-E2CF-464C-9657-852F2B8F8133"><rect x="170" y="75" width="240" height="410" transform="matrix(1,0,0,1,0,0)"/></clipPath><clipPath id="205EECD2-BA6B-47F0-958A-ED2A798A9782"><rect x="170" y="75" width="240" height="410" transform="matrix(1,0,0,1,0,0)"/></clipPath><clipPath id="FB6D1D68-3E9D-4D14-9953-D6F8AF66BF54"><rect x="170" y="75" width="240" height="410" transform="matrix(1,0,0,1,0,0)"/></clipPath><clipPath id="AD726607-5B7B-48E1-B4B9-1992761DF7D3"><rect x="170" y="75" width="240" height="410" transform="matrix(1,0,0,1,0,0)"/></clipPath><clipPath id="764238FA-DB50-40C1-AAE5-9772A84C5467"><rect x="170" y="75" width="240" height="410" transform="matrix(1,0,0,1,0,0)"/></clipPath><clipPath id="F9A582AE-2630-4AD3-B2DA-BF237FA366A9"><rect x="170" y="75" width="240" height="410" transform="matrix(1,0,0,1,0,0)"/></clipPath><clipPath id="09C52D1D-433A-48EA-84F1-2B2F06450175"><rect x="170" y="75" width="240" height="410" transform="matrix(1,0,0,1,0,0)"/></clipPath><clipPath id="D9E98FBE-6AD1-443F-B17E-3D342E117BFA"><rect x="170" y="75" width="240" height="410" transform="matrix(1,0,0,1,0,0)"/></clipPath><clipPath id="37859B0F-C99D-4435-9FF0-674839BFC22E"><rect x="170" y="75" width="240" height="410" transform="matrix(1,0,0,1,-290,-280)"/></clipPath><clipPath id="587009FE-A4E1-4897-A72D-5A3C1CE95D28"><rect x="170" y="75" width="240" height="410" transform="matrix(1,0,0,1,0,0)"/></clipPath><clipPath id="45666259-1A36-410B-877D-54D768F987F4"><rect x="170" y="75" width="240" height="410" transform="matrix(1,0,0,1,0,0)"/></clipPath><clipPath id="243DEB68-5542-4E78-BD3A-DEECC1C73B6D"><rect x="170" y="75" width="240" height="410" transform="matrix(1,0,0,1,0,0)"/></clipPath><clipPath id="81B5F1E9-E3D7-48BE-BB46-C232B309C046"><rect x="170" y="75" width="240" height="410" transform="matrix(1,0,0,1,0,0)"/></clipPath><clipPath id="1EA3C87E-CC9D-4C74-ADAB-A5D9B4C880A7"><rect x="170" y="75" width="240" height="410" transform="matrix(1,0,0,1,0,0)"/></clipPath><clipPath id="758484B5-B6DC-4FB7-8C42-7DF78A80BFE5"><rect x="170" y="75" width="240" height="410" transform="matrix(1,0,0,1,0,0)"/></clipPath><clipPath id="E9890CF5-2143-4462-ABF1-7B7EE1B0E4DA"><rect x="170" y="75" width="240" height="410" transform="matrix(1,0,0,1,0,0)"/></clipPath><clipPath id="B9B21DFB-6348-4257-BC11-B733AC1448F4"><rect x="170" y="75" width="240" height="410" transform="matrix(1,0,0,1,0,0)"/></clipPath><clipPath id="E54167E2-AD52-42C8-868C-0E16A4639751"><rect x="170" y="75" width="240" height="410" transform="matrix(1,0,0,1,0,0)"/></clipPath><clipPath id="73473DD8-D987-4623-A31B-BEE81F9F5B9A"><rect x="170" y="75" width="240" height="410" transform="matrix(1,0,0,1,0,0)"/></clipPath><clipPath id="0BF31384-2A36-4BBD-90FC-BF3CA3D5A2BF"><rect x="170" y="75" width="240" height="410" transform="matrix(1,0,0,1,0,0)"/></clipPath><clipPath id="DFC0D52D-F16A-4BA7-8CAC-C9AA3D787C99"><rect x="170" y="75" width="240" height="410" transform="matrix(1,0,0,1,0,0)"/></clipPath><clipPath id="F1556A0F-4890-460B-9240-4EDDD7ED2B6C"><rect x="170" y="75" width="240" height="410" transform="matrix(1,0,0,1,0,0)"/></clipPath><clipPath id="3B6C5D44-534C-4A30-B944-499FF8E0D84F"><rect x="170" y="75" width="240" height="410" transform="matrix(1,0,0,1,0,0)"/></clipPath><clipPath id="8CBA5560-9B14-4267-9736-071D4C7AB2A3"><rect x="170" y="75" width="240" height="410" transform="matrix(1,0,0,1,0,0)"/></clipPath><clipPath id="46DCAF38-5830-4FB9-BCA1-25307312BD76"><rect x="170" y="75" width="240" height="410" transform="matrix(1,0,0,1,0,0)"/></clipPath><clipPath id="7AF9895F-7E9C-42E7-BD86-FA46F5A4B3EF"><rect x="170" y="75" width="240" height="410" transform="matrix(1,0,0,1,0,0)"/></clipPath><clipPath id="EDAAE612-3C8F-4145-BC30-7A88341E0E75"><rect x="170" y="75" width="240" height="410" transform="matrix(1,0,0,1,0,0)"/></clipPath><clipPath id="6933E242-F858-447E-9EF8-45DC6768E0BC"><rect x="170" y="75" width="240" height="410" transform="matrix(1,0,0,1,0,0)"/></clipPath><clipPath id="06534B7E-AF98-4BA7-B775-2F9CB52930D5"><rect x="170" y="75" width="240" height="410" transform="matrix(1,0,0,1,0,0)"/></clipPath><clipPath id="A03C1D6F-50D0-411F-AF49-F9EC33224717"><rect x="170" y="75" width="240" height="410" transform="matrix(1,0,0,1,0,0)"/></clipPath><clipPath id="CFAD1170-5CB5-4C4A-95AE-C833A54FC911"><rect x="170" y="75" width="240" height="410" transform="matrix(1,0,0,1,0,0)"/></clipPath><clipPath id="0E5C97BD-AB10-49B6-AC04-7626B568628A"><rect x="170" y="75" width="240" height="410" transform="matrix(1,0,0,1,0,0)"/></clipPath><clipPath id="571B4D5B-C45D-42E3-9245-FA8F28554715"><rect x="170" y="75" width="240" height="410" transform="matrix(1,0,0,1,0,0)"/></clipPath><clipPath id="28483772-FAAD-48B2-9F4C-40C3EE79BEF5"><rect x="170" y="75" width="240" height="410" transform="matrix(1,0,0,1,0,0)"/></clipPath><clipPath id="FD9E9CBB-F472-4524-8AB0-AF3994140EC0"><rect x="170" y="75" width="240" height="410" transform="matrix(1,0,0,1,0,0)"/></clipPath><clipPath id="8D3095B4-2098-4A74-9FEA-123AF8384F31"><rect x="170" y="75" width="240" height="410" transform="matrix(1,0,0,1,0,0)"/></clipPath><clipPath id="429628DD-DDE3-4C02-B14E-62849F6A8CDA"><rect x="170" y="75" width="240" height="410" transform="matrix(1,0,0,1,0,0)"/></clipPath><clipPath id="E824FE0C-8736-407D-8C02-9981A73501ED"><rect x="170" y="75" width="240" height="410" transform="matrix(1,0,0,1,0,0)"/></clipPath><clipPath id="40FC4D00-362C-4E98-94C6-B8A4A49E113E"><rect x="170" y="75" width="240" height="410" transform="matrix(1,0,0,1,0,0)"/></clipPath><clipPath id="7570F47C-86ED-48B2-B043-C880C6BDDB69"><rect x="170" y="75" width="240" height="410" transform="matrix(1,0,0,1,0,0)"/></clipPath><clipPath id="0D58F937-5748-424D-98BA-A22C046B61DA"><rect x="170" y="75" width="240" height="410" transform="matrix(1,0,0,1,0,0)"/></clipPath><clipPath id="8BFD18EB-AA1C-432C-BC6C-09517E38BF68"><rect x="170" y="75" width="240" height="410" transform="matrix(1,0,0,1,0,0)"/></clipPath><clipPath id="AFBD268E-A050-4AD5-A51C-A3DCBDDA2612"><rect x="170" y="75" width="240" height="410" transform="matrix(1,0,0,1,0,0)"/></clipPath><clipPath id="D001A885-AE19-4BDF-BD15-E6C4EC04AC15"><rect x="170" y="75" width="240" height="410" transform="matrix(1,0,0,1,0,0)"/></clipPath><clipPath id="ABEC7F0A-03DE-4ADB-9381-0276CE8CDB6D"><rect x="170" y="75" width="240" height="410" transform="matrix(1,0,0,1,0,0)"/></clipPath><clipPath id="BE3B6208-0CC6-4C87-BB67-8AF24EA5CB00"><rect x="170" y="75" width="240" height="410" transform="matrix(1,0,0,1,0,0)"/></clipPath><clipPath id="FFE1D16F-F260-46F0-B68E-A5172C987DE9"><rect x="170" y="75" width="240" height="410" transform="matrix(1,0,0,1,0,0)"/></clipPath><clipPath id="D7B67D96-6D68-416D-AA9A-2E0FB6E58DE3"><rect x="170" y="75" width="240" height="410" transform="matrix(1,0,0,1,0,0)"/></clipPath><clipPath id="5E160481-98D8-4996-B778-0BEA96FEEE2D"><rect x="170" y="75" width="240" height="410" transform="matrix(1,0,0,1,0,0)"/></clipPath><clipPath id="BCD6199B-DCA9-4F3C-8683-48A5F7FF5603"><rect x="170" y="75" width="240" height="410" transform="matrix(1,0,0,1,0,0)"/></clipPath><clipPath id="D6686F27-ED7D-4F64-845F-86CD73A3C879"><rect x="170" y="75" width="240" height="410" transform="matrix(1,0,0,1,0,0)"/></clipPath><clipPath id="A22F99C7-A58B-4021-B680-816B8797E33E"><rect x="170" y="75" width="240" height="410" transform="matrix(1,0,0,1,0,0)"/></clipPath><clipPath id="B2405F81-07B5-442D-8492-3E679A1417C2"><rect x="170" y="75" width="240" height="410" transform="matrix(1,0,0,1,0,0)"/></clipPath><clipPath id="9BE5C013-8861-4576-BD68-AD85F798AA34"><rect x="170" y="75" width="240" height="410" transform="matrix(1,0,0,1,0,0)"/></clipPath><clipPath id="21C0E2ED-9B04-45B9-AB02-1B1C9AD727BD"><rect x="170" y="75" width="240" height="410" transform="matrix(1,0,0,1,0,0)"/></clipPath><clipPath id="93C1EEDF-44C8-407D-9ADB-8514F4BA6244"><rect x="170" y="75" width="240" height="410" transform="matrix(1,0,0,1,0,0)"/></clipPath><clipPath id="7F86E588-63B8-4FFB-A12D-B51BDEF8625B"><rect x="170" y="75" width="240" height="410" transform="matrix(1,0,0,1,0,0)"/></clipPath><clipPath id="BA19E8EB-251B-46A5-BFCB-E228C46976E4"><rect x="170" y="75" width="240" height="410" transform="matrix(1,0,0,1,0,0)"/></clipPath><clipPath id="0BE04449-D78E-4D4E-A791-268BDFE26549"><rect x="170" y="75" width="240" height="410" transform="matrix(1,0,0,1,0,0)"/></clipPath><clipPath id="327B8684-3207-4DFA-8A56-BEE61A09FEC4"><rect x="170" y="75" width="240" height="410" transform="matrix(1,0,0,1,-290,-280)"/></clipPath><clipPath id="842D3732-4D96-4A54-A698-4CCBA2EEFED9"><rect x="170" y="75" width="240" height="410" transform="matrix(1,0,0,1,0,0)"/></clipPath><clipPath id="A191AF27-D0C0-410A-B19B-ACB8A04A88EF"><rect x="170" y="75" width="240" height="410" transform="matrix(1,0,0,1,0,0)"/></clipPath><clipPath id="3A0F5F67-CAFB-46B4-B8C0-F45D2BF431B0"><rect x="170" y="75" width="240" height="410" transform="matrix(1,0,0,1,0,0)"/></clipPath><clipPath id="18EE6A26-EB5D-4C5E-827A-C0A883076818"><rect x="170" y="75" width="240" height="410" transform="matrix(1,0,0,1,0,0)"/></clipPath><clipPath id="3FC3D6B9-6930-4791-8707-98D0E69BEDE3"><rect x="170" y="75" width="240" height="410" transform="matrix(1,0,0,1,0,0)"/></clipPath><clipPath id="2F5D2E9C-8C0D-44D9-8356-0C076CD43BA1"><rect x="170" y="75" width="240" height="410" transform="matrix(1,0,0,1,0,0)"/></clipPath><clipPath id="4FAA4CB5-35D8-4BCF-A02F-B881AF0FFACD"><rect x="170" y="75" width="240" height="410" transform="matrix(1,0,0,1,0,0)"/></clipPath><clipPath id="4CC177FE-E795-43A6-8B8A-AFDA3A2139DA"><rect x="170" y="75" width="240" height="410" transform="matrix(1,0,0,1,0,0)"/></clipPath><clipPath id="FF519725-EAE9-4EE3-8936-06F0F8D2EA6C"><rect x="170" y="75" width="240" height="410" transform="matrix(1,0,0,1,0,0)"/></clipPath><clipPath id="C805CA12-65B0-4120-B0EF-41894307873F"><rect x="170" y="75" width="240" height="410" transform="matrix(1,0,0,1,0,0)"/></clipPath><clipPath id="89435D9C-5C3E-464B-919E-0B080FB228A8"><rect x="170" y="75" width="240" height="410" transform="matrix(1,0,0,1,0,0)"/></clipPath><clipPath id="7B3C579B-FF1E-4D78-A824-365B8CB1D37C"><rect x="170" y="75" width="240" height="410" transform="matrix(1,0,0,1,0,0)"/></clipPath><clipPath id="D7DA20E4-975E-43E8-AF2E-32DCABA8CAE0"><rect x="170" y="75" width="240" height="410" transform="matrix(1,0,0,1,0,0)"/></clipPath><clipPath id="B489B3C4-883B-41C8-9624-777919EC3663"><rect x="170" y="75" width="240" height="410" transform="matrix(1,0,0,1,0,0)"/></clipPath><clipPath id="5EDD79B7-1A37-4F94-8EFC-3AF768550511"><rect x="170" y="75" width="240" height="410" transform="matrix(1,0,0,1,0,0)"/></clipPath><clipPath id="F661EF06-2530-47D4-A71C-2641664BC180"><rect x="170" y="75" width="240" height="410" transform="matrix(1,0,0,1,0,0)"/></clipPath><clipPath id="404B1B57-648F-4A89-8F4E-3C5EAA701ACA"><rect x="170" y="75" width="240" height="410" transform="matrix(1,0,0,1,0,0)"/></clipPath><clipPath id="1A70EB0E-B050-4763-A3D9-E9BBE0E07576"><rect x="170" y="75" width="240" height="410" transform="matrix(1,0,0,1,0,0)"/></clipPath><clipPath id="54C2797F-F4D9-488D-AE23-8FCCCCE7EB89"><rect x="170" y="75" width="240" height="410" transform="matrix(1,0,0,1,0,0)"/></clipPath><clipPath id="C3D8A652-F0CF-4C1B-B175-6F972E32F31B"><rect x="170" y="75" width="240" height="410" transform="matrix(1,0,0,1,0,0)"/></clipPath><clipPath id="530C9D45-3555-4DF1-A915-652EAAA4D003"><rect x="170" y="75" width="240" height="410" transform="matrix(1,0,0,1,0,0)"/></clipPath><clipPath id="609E1018-E59A-4EDD-A330-3F6BC2DCE723"><rect x="170" y="75" width="240" height="410" transform="matrix(1,0,0,1,0,0)"/></clipPath><clipPath id="F2C73CCD-F47F-4214-9492-35EE3A2769D8"><rect x="170" y="75" width="240" height="410" transform="matrix(1,0,0,1,0,0)"/></clipPath><clipPath id="5E23B7F7-38C2-4008-883D-D4E9B248FF90"><rect x="170" y="75" width="240" height="410" transform="matrix(1,0,0,1,0,0)"/></clipPath><clipPath id="86560AEF-5562-466D-8911-FB4ACD4AC06C"><rect x="170" y="75" width="240" height="410" transform="matrix(1,0,0,1,0,0)"/></clipPath><clipPath id="56F581F7-B2AE-4827-B0E2-4D1393269D02"><rect x="170" y="75" width="240" height="410" transform="matrix(1,0,0,1,0,0)"/></clipPath><clipPath id="EF2B9013-53AC-4C5E-AF68-75F9EE186CDE"><rect x="170" y="75" width="240" height="410" transform="matrix(1,0,0,1,0,0)"/></clipPath><clipPath id="C4F7EA72-C281-4A1C-A27D-F673B03948F4"><rect x="170" y="75" width="240" height="410" transform="matrix(1,0,0,1,0,0)"/></clipPath><clipPath id="66D4936C-4C6B-46A3-806C-9ED95237479C"><rect x="170" y="75" width="240" height="410" transform="matrix(1,0,0,1,0,0)"/></clipPath><clipPath id="1F4A9B3A-32E6-40A4-98E5-A9AEB6C30043"><rect x="170" y="75" width="240" height="410" transform="matrix(1,0,0,1,0,0)"/></clipPath><clipPath id="668589C0-55A8-4778-B178-2195212243DA"><rect x="170" y="75" width="240" height="410" transform="matrix(1,0,0,1,0,0)"/></clipPath><clipPath id="6DC3A92D-7D23-492A-AA22-F87D653524AA"><rect x="170" y="75" width="240" height="410" transform="matrix(1,0,0,1,0,0)"/></clipPath><clipPath id="DC55682E-85B4-44D8-BBD7-46F0910E369A"><rect x="170" y="75" width="240" height="410" transform="matrix(1,0,0,1,0,0)"/></clipPath><clipPath id="D16A15BA-D0D8-46E3-8145-3FF33FE4B195"><rect x="170" y="75" width="240" height="410" transform="matrix(1,0,0,1,0,0)"/></clipPath><clipPath id="BAFB8BCC-B81E-4A50-84E8-74793892B77D"><rect x="170" y="75" width="240" height="410" transform="matrix(1,0,0,1,0,0)"/></clipPath><clipPath id="B417FDE6-9DD8-4761-BF38-C5D0E31C283A"><rect x="170" y="75" width="240" height="410" transform="matrix(1,0,0,1,0,0)"/></clipPath><clipPath id="E4ED6ADF-F575-42DF-89DD-8BCFAB5B7795"><rect x="170" y="75" width="240" height="410" transform="matrix(1,0,0,1,0,0)"/></clipPath><clipPath id="941A3022-F7C5-41F4-AE2A-B969C235E993"><rect x="170" y="75" width="240" height="410" transform="matrix(1,0,0,1,0,0)"/></clipPath><clipPath id="0A71909E-D290-47A1-8567-8D519B19530E"><rect x="170" y="75" width="240" height="410" transform="matrix(1,0,0,1,0,0)"/></clipPath><clipPath id="6ED3E6CE-C21D-4AD8-85D8-3E2DA93F74BA"><rect x="170" y="75" width="240" height="410" transform="matrix(1,0,0,1,0,0)"/></clipPath><clipPath id="AB4715B5-1DF5-4F7A-A7A9-B571629809D2"><rect x="170" y="75" width="240" height="410" transform="matrix(1,0,0,1,0,0)"/></clipPath><clipPath id="AA6A4F8D-1395-4301-8E11-A43925E20592"><rect x="170" y="75" width="240" height="410" transform="matrix(1,0,0,1,0,0)"/></clipPath><clipPath id="E3885461-226D-4809-BEE3-574D9F452013"><rect x="170" y="75" width="240" height="410" transform="matrix(1,0,0,1,0,0)"/></clipPath><clipPath id="6653C3FC-B9B4-407A-9A71-41C89932E0FD"><rect x="170" y="75" width="240" height="410" transform="matrix(1,0,0,1,0,0)"/></clipPath><clipPath id="5DAAF5D6-7A8D-4339-90AE-A60EDD39B6C5"><rect x="170" y="75" width="240" height="410" transform="matrix(1,0,0,1,0,0)"/></clipPath><clipPath id="16C48271-0CC6-49E9-BBC2-ED5B9E6D95E1"><rect x="170" y="75" width="240" height="410" transform="matrix(1,0,0,1,0,0)"/></clipPath><clipPath id="D9597150-6C59-4B5E-AAC2-2298A91F7C9F"><rect x="170" y="75" width="240" height="410" transform="matrix(1,0,0,1,0,0)"/></clipPath><clipPath id="7F8C2FE3-EB65-4897-899B-04DF0D2DEEE2"><rect x="170" y="75" width="240" height="410" transform="matrix(1,0,0,1,0,0)"/></clipPath><clipPath id="AE839144-C421-4E26-9E92-4421013EB240"><rect x="170" y="75" width="240" height="410" transform="matrix(1,0,0,1,0,0)"/></clipPath><clipPath id="2CAAE45E-7819-4CA4-B3C7-ADAE36578B0E"><rect x="170" y="75" width="240" height="410" transform="matrix(1,0,0,1,0,0)"/></clipPath><clipPath id="174A7B89-D47C-40AE-A38E-D604BD17DCEC"><rect x="170" y="75" width="240" height="410" transform="matrix(1,0,0,1,-290,-280)"/></clipPath><clipPath id="BDF6EB4C-1D2C-4467-AB73-C752B4A2521B"><rect x="170" y="75" width="240" height="410" transform="matrix(1,0,0,1,0,0)"/></clipPath><clipPath id="67F1EE0B-2575-425D-8BDA-472C5A093859"><rect x="170" y="75" width="240" height="410" transform="matrix(1,0,0,1,0,0)"/></clipPath><clipPath id="864784C0-C9B9-41C0-B158-7AFD697CCF0B"><rect x="170" y="75" width="240" height="410" transform="matrix(1,0,0,1,0,0)"/></clipPath><clipPath id="92A2EA46-A364-4F60-B8E1-D902376E1A70"><rect x="170" y="75" width="240" height="410" transform="matrix(1,0,0,1,0,0)"/></clipPath><clipPath id="BBD2FDA7-C1E3-452C-9C15-66DEC2050773"><rect x="170" y="75" width="240" height="410" transform="matrix(1,0,0,1,0,0)"/></clipPath><clipPath id="788007B1-0C36-47DB-B52E-87141AC145F6"><rect x="170" y="75" width="240" height="410" transform="matrix(1,0,0,1,0,0)"/></clipPath><clipPath id="4E7D6280-E68E-4FA0-953E-E64659C48603"><rect x="170" y="75" width="240" height="410" transform="matrix(1,0,0,1,0,0)"/></clipPath><clipPath id="BCA2D851-50EF-4BB9-8E03-0C7E2FCBBFC2"><rect x="170" y="75" width="240" height="410" transform="matrix(1,0,0,1,0,0)"/></clipPath><clipPath id="7BEB0090-2043-4D19-A7A9-DE082D2F3599"><rect x="170" y="75" width="240" height="410" transform="matrix(1,0,0,1,0,0)"/></clipPath><clipPath id="D5D3D269-2F26-4A1A-818C-61CFAFCC0ABC"><rect x="170" y="75" width="240" height="410" transform="matrix(1,0,0,1,0,0)"/></clipPath><clipPath id="A02E3B4C-A376-47C5-8D6E-23D7BBB271D6"><rect x="170" y="75" width="240" height="410" transform="matrix(1,0,0,1,0,0)"/></clipPath><clipPath id="E0355C93-0A9A-4075-9541-4BA3E1B8EB39"><rect x="170" y="75" width="240" height="410" transform="matrix(1,0,0,1,0,0)"/></clipPath><clipPath id="E90F3E5D-1041-40DD-B680-4876FDA8E9B6"><rect x="170" y="75" width="240" height="410" transform="matrix(1,0,0,1,0,0)"/></clipPath><clipPath id="FF7C5F23-8A4E-44AD-AD4B-25E94F5C61EE"><rect x="170" y="75" width="240" height="410" transform="matrix(1,0,0,1,0,0)"/></clipPath><clipPath id="BB486523-20AA-440B-8144-E520F41BFC29"><rect x="170" y="75" width="240" height="410" transform="matrix(1,0,0,1,0,0)"/></clipPath><clipPath id="E378BF6B-53BE-489A-9415-95681E2519E0"><rect x="170" y="75" width="240" height="410" transform="matrix(1,0,0,1,0,0)"/></clipPath><clipPath id="444CCA1F-33EC-4423-86BA-CE53C33D9596"><rect x="170" y="75" width="240" height="410" transform="matrix(1,0,0,1,0,0)"/></clipPath><clipPath id="124AFC98-0E9A-46E6-8490-6DB7719F973E"><rect x="170" y="75" width="240" height="410" transform="matrix(1,0,0,1,0,0)"/></clipPath><clipPath id="CD70497F-70C4-447A-B18A-54D81887BA9D"><rect x="170" y="75" width="240" height="410" transform="matrix(1,0,0,1,0,0)"/></clipPath><clipPath id="793DFEA3-1F8F-469A-83BE-97205BEF617C"><rect x="170" y="75" width="240" height="410" transform="matrix(1,0,0,1,0,0)"/></clipPath><clipPath id="9911E2BC-16EE-4A6A-88CA-D0F45FB379F0"><rect x="170" y="75" width="240" height="410" transform="matrix(1,0,0,1,0,0)"/></clipPath><clipPath id="F7909272-A955-4CD4-AB52-F534A6BABDB0"><rect x="170" y="75" width="240" height="410" transform="matrix(1,0,0,1,0,0)"/></clipPath><clipPath id="212DB752-C138-4715-BC62-62FA3F0C40B9"><rect x="170" y="75" width="240" height="410" transform="matrix(1,0,0,1,0,0)"/></clipPath><clipPath id="BF098DD9-2943-41E6-BC92-8E0918E46235"><rect x="170" y="75" width="240" height="410" transform="matrix(1,0,0,1,0,0)"/></clipPath><clipPath id="BDE468B1-1D54-4417-9C01-9EE18597F695"><rect x="170" y="75" width="240" height="410" transform="matrix(1,0,0,1,0,0)"/></clipPath><clipPath id="9EBFF18C-1CA7-4F2C-9313-9BF5CAC55F70"><rect x="170" y="75" width="240" height="410" transform="matrix(1,0,0,1,0,0)"/></clipPath><clipPath id="86D398FC-C2A6-4CFF-B668-1F36E422424C"><rect x="170" y="75" width="240" height="410" transform="matrix(1,0,0,1,0,0)"/></clipPath><clipPath id="6B8F280E-1926-4B32-9382-A0B0B7EA9BB9"><rect x="170" y="75" width="240" height="410" transform="matrix(1,0,0,1,0,0)"/></clipPath><clipPath id="401FD63F-8EC3-492A-9012-D1042AAEF538"><rect x="170" y="75" width="240" height="410" transform="matrix(1,0,0,1,0,0)"/></clipPath><clipPath id="208D1F58-0A62-479D-AC9B-088BC9027B23"><rect x="170" y="75" width="240" height="410" transform="matrix(1,0,0,1,0,0)"/></clipPath><clipPath id="4BDBB049-5FB1-4D12-BBB2-4CFD0906F047"><rect x="170" y="75" width="240" height="410" transform="matrix(1,0,0,1,0,0)"/></clipPath><clipPath id="678E9F6F-D2E1-4263-A1EF-1E0E284D07FB"><rect x="170" y="75" width="240" height="410" transform="matrix(1,0,0,1,0,0)"/></clipPath><clipPath id="185C5EE5-24F6-46E3-91C6-2BE1620E5657"><rect x="170" y="75" width="240" height="410" transform="matrix(1,0,0,1,0,0)"/></clipPath><clipPath id="8201E054-025A-4432-9F66-B4D5008FEC2D"><rect x="170" y="75" width="240" height="410" transform="matrix(1,0,0,1,0,0)"/></clipPath><clipPath id="32086712-EDE9-4575-ACB8-1B701504ADBE"><rect x="170" y="75" width="240" height="410" transform="matrix(1,0,0,1,0,0)"/></clipPath><clipPath id="DACF8639-DDFA-4F22-8665-98F2CDAD3BC4"><rect x="170" y="75" width="240" height="410" transform="matrix(1,0,0,1,0,0)"/></clipPath><clipPath id="D3FBAA1B-03B0-43E0-8E3B-0C9F622FBD36"><rect x="170" y="75" width="240" height="410" transform="matrix(1,0,0,1,0,0)"/></clipPath><clipPath id="585F10D0-B8FE-4FAE-BB66-BDFB1BB93EAC"><rect x="170" y="75" width="240" height="410" transform="matrix(1,0,0,1,0,0)"/></clipPath><clipPath id="FE6BDD02-4525-4827-A076-BC31569159CB"><rect x="170" y="75" width="240" height="410" transform="matrix(1,0,0,1,0,0)"/></clipPath><clipPath id="5988DC75-A245-4D2F-9C78-79080030CEBB"><rect x="170" y="75" width="240" height="410" transform="matrix(1,0,0,1,0,0)"/></clipPath><clipPath id="23F2C3D3-9F1A-4D77-A9A8-760862C5046E"><rect x="170" y="75" width="240" height="410" transform="matrix(1,0,0,1,0,0)"/></clipPath><clipPath id="FD801F14-4132-4502-BDC7-3F7268A70073"><rect x="170" y="75" width="240" height="410" transform="matrix(1,0,0,1,0,0)"/></clipPath><clipPath id="ADAEBFC6-6ED4-46A7-B49A-CBFDD34AA8F3"><rect x="170" y="75" width="240" height="410" transform="matrix(1,0,0,1,0,0)"/></clipPath><clipPath id="C706012D-BADC-4D89-8072-C044F3088D83"><rect x="170" y="75" width="240" height="410" transform="matrix(1,0,0,1,0,0)"/></clipPath><clipPath id="D750BE32-0EDB-4C30-A0F2-EF2336219EDC"><rect x="170" y="75" width="240" height="410" transform="matrix(1,0,0,1,0,0)"/></clipPath><clipPath id="5F457A4C-AB4C-462A-9983-B478DB85800A"><rect x="170" y="75" width="240" height="410" transform="matrix(1,0,0,1,0,0)"/></clipPath><clipPath id="4FD2C608-7CEB-44A1-B7C1-2FCBB0E2509B"><rect x="170" y="75" width="240" height="410" transform="matrix(1,0,0,1,0,0)"/></clipPath><clipPath id="7D23E498-2AFF-43C0-A601-A0F28D446675"><rect x="170" y="75" width="240" height="410" transform="matrix(1,0,0,1,0,0)"/></clipPath><clipPath id="B3BF0DA9-1A91-4FC5-919F-6DCDEF0A0529"><rect x="170" y="75" width="240" height="410" transform="matrix(1,0,0,1,0,0)"/></clipPath><clipPath id="FD925A63-9620-448C-830B-D442BBF60471"><rect x="170" y="75" width="240" height="410" transform="matrix(1,0,0,1,0,0)"/></clipPath><clipPath id="A253A6B7-C914-4FA8-BEFA-6AB47E8C2BBD"><rect x="170" y="75" width="240" height="410" transform="matrix(1,0,0,1,0,0)"/></clipPath><clipPath id="29129FF2-332A-4EF8-83E9-530FCB723B28"><rect x="170" y="75" width="240" height="410" transform="matrix(1,0,0,1,0,0)"/></clipPath><clipPath id="7551753C-7AD5-4F56-8B06-2956F44BDD4E"><rect x="170" y="75" width="240" height="410" transform="matrix(1,0,0,1,0,0)"/></clipPath><clipPath id="29FDBD56-353F-4911-843A-AA33EBAA5D0B"><rect x="170" y="75" width="240" height="410" transform="matrix(1,0,0,1,0,0)"/></clipPath><clipPath id="FC092229-E766-4AA4-812A-7D0976319238"><rect x="170" y="75" width="240" height="410" transform="matrix(1,0,0,1,0,0)"/></clipPath><clipPath id="806DED3C-F0DB-423E-8819-BA977796A93B"><rect x="170" y="75" width="240" height="410" transform="matrix(1,0,0,1,0,0)"/></clipPath><clipPath id="58D39564-5970-48E5-B718-5BB319C10A12"><rect x="170" y="75" width="240" height="410" transform="matrix(1,0,0,1,0,0)"/></clipPath><clipPath id="DF7C108F-C744-4D6F-AE19-92DDAB20C347"><rect x="170" y="75" width="240" height="410" transform="matrix(1,0,0,1,0,0)"/></clipPath><clipPath id="DA5BEFB2-A4F5-4729-A1B7-81A05B98B032"><rect x="170" y="75" width="240" height="410" transform="matrix(1,0,0,1,0,0)"/></clipPath><clipPath id="FB66CD4B-8E58-4822-ACA1-5A028882E93B"><rect x="170" y="75" width="240" height="410" transform="matrix(1,0,0,1,0,0)"/></clipPath><clipPath id="9B9A9CD2-24CA-42E4-BAF5-CE3B3377D55B"><rect x="170" y="75" width="240" height="410" transform="matrix(1,0,0,1,0,0)"/></clipPath><clipPath id="A1E782DF-B439-4520-B60E-339C453CE4C0"><rect x="170" y="75" width="240" height="410" transform="matrix(1,0,0,1,0,0)"/></clipPath><clipPath id="C124B754-FB62-4DB5-A708-8FD2C8834789"><rect x="170" y="75" width="240" height="410" transform="matrix(1,0,0,1,0,0)"/></clipPath><clipPath id="9BC87B79-1BE6-4881-A90A-A239FE33141B"><rect x="170" y="75" width="240" height="410" transform="matrix(1,0,0,1,0,0)"/></clipPath><clipPath id="A4EA2D5A-791F-48CC-B221-BB8F02E067C9"><rect x="170" y="75" width="240" height="410" transform="matrix(1,0,0,1,0,0)"/></clipPath><clipPath id="CEBA7647-A208-4BB7-9C36-01935859FF54"><rect x="170" y="75" width="240" height="410" transform="matrix(1,0,0,1,0,0)"/></clipPath><clipPath id="80A59A1A-89C5-410F-ACEE-F066D5E483F9"><rect x="170" y="75" width="240" height="410" transform="matrix(1,0,0,1,0,0)"/></clipPath><clipPath id="6B1863A7-44A3-4CD8-9C1D-BEC77A0887D4"><rect x="170" y="75" width="240" height="410" transform="matrix(1,0,0,1,0,0)"/></clipPath><clipPath id="5D63D5A2-D952-4C05-8D2E-B33718F2958F"><rect x="170" y="75" width="240" height="410" transform="matrix(1,0,0,1,0,0)"/></clipPath><clipPath id="B0F3EE06-4665-46D7-8DE0-11A6A574D9E3"><rect x="170" y="75" width="240" height="410" transform="matrix(1,0,0,1,0,0)"/></clipPath><clipPath id="BB482125-5E63-4786-9E49-BEB8483BC05D"><rect x="170" y="75" width="240" height="410" transform="matrix(1,0,0,1,0,0)"/></clipPath><clipPath id="A259C69C-FA2A-4440-A538-880945EB673E"><rect x="170" y="75" width="240" height="410" transform="matrix(1,0,0,1,0,0)"/></clipPath><clipPath id="1CF60B2F-5A14-4592-965C-3068E8078FAE"><rect x="170" y="75" width="240" height="410" transform="matrix(1,0,0,1,0,0)"/></clipPath><clipPath id="12EAAAE8-AC00-49AA-9821-A29FD75566CC"><rect x="170" y="75" width="240" height="410" transform="matrix(1,0,0,1,0,0)"/></clipPath><clipPath id="AC9D85F3-E5A3-4A7C-A00C-AAAE673DF268"><rect x="170" y="75" width="240" height="410" transform="matrix(1,0,0,1,0,0)"/></clipPath><g xmlns="http://www.w3.org/2000/svg" xmlns:xlink="http://www.w3.org/1999/xlink" version="1.1" id="id081529186074391" x="0px" y="0px" width="587px" height="543px" viewBox="0 0 587 543" enable-background="new 0 0 587 543" xml:space="preserve">
<style type="text/css">.bg {fill:#FFFFFF;} </style>
<path class="bg" fill-rule="evenodd" clip-rule="evenodd" d="M520.306,240.901c0.468,0.418,0.896,0.825,1.281,1.219  c0.192-0.167,0.38-0.333,0.563-0.5c0.209-0.208,0.313-0.521,0.313-0.938c0.417,0,0.667,0.084,0.751,0.25  c0.46,1.102,0.502,2.144,0.125,3.125c0.607,0.785,1.024,1.504,1.25,2.156c1.293,0.258,2.252,1.747,2.875,4.469l-0.75,2.688  c-12.793,16.584-32.502,27.168-59.128,31.751c-13.792,2.417-21.751-0.729-23.876-9.438c-0.417,0-0.667-0.084-0.75-0.251  c-0.259-0.516-0.415-1.078-0.469-1.687c-2.641-1.67-4.089-3.982-4.344-6.938c-0.17-1.7,0.079-3.888,0.75-6.563  c-2.655-9.156-4.489-19.094-5.5-29.814c-1.348-0.782-2.868-1.386-4.563-1.812c-0.021,3.758-0.063,7.78-0.126,12.063  c0,0.417,0,0.833,0,1.25c1.459,6.875,1.667,14.772,0.625,23.689c0,0.042-0.208,0.063-0.625,0.063c0,4.167,0,8.333,0,12.5  c0,0.417,0,0.833,0,1.25s0.021,0.833,0.063,1.25c0.584,8.958,0.146,16.876-1.313,23.751c0,10.834,0,21.668,0,32.501  c0,0.417,0,0.834,0,1.25c1.459,7.293,1.896,15.626,1.313,25.002c-0.041,0.416-0.063,0.833-0.063,1.25c0,7.917,0,15.833,0,23.751  c0,0.417,0,0.833,0,1.25c0,11.25,0,22.501,0,33.751c0,0.417,0,0.833,0,1.25c0.917,21.168,1.938,39.544,3.063,55.128  c0.015,0.191,0.024,0.379,0.031,0.562c0.699,0.861,1.335,1.663,1.906,2.407c0.935-0.11,1.538,0.744,1.813,2.563  c0.813,1.273,1.344,2.314,1.594,3.125c0.107-0.021,0.222-0.031,0.344-0.031c0,0.417,0.041,0.833,0.125,1.25  c0.958,4.792,0.917,8.542-0.125,11.251c0,0.416-0.104,0.687-0.313,0.812c-27.71,18.21-63.857,27.939-108.442,29.189  c0,0.417-0.021,0.625-0.063,0.625c-7.459,0.417-14.938,0.625-22.438,0.625c-0.417,0-0.833,0-1.25,0c-15,0-30.001,0-45.002,0  c-0.417,0-0.833,0.021-1.25,0.063c-7.292,0.583-13.542,0.146-18.751-1.313c-0.417,0-0.833,0-1.25,0  c-40.627-0.625-71.461-11.042-92.504-31.251c-0.417,0-0.625-0.021-0.625-0.063c-0.329-3.254-0.527-6.524-0.594-9.813  c-0.854-1.374-1.281-2.729-1.281-4.063c0-2.459,0.521-4.646,1.563-6.563c0.606-1.136,1.366-2.063,2.282-2.781  c-0.488-2.604-0.52-5.677-0.094-9.22c2-7.584,2.833-16.334,2.5-26.251c0-0.417,0-0.833,0-1.25s0-0.833,0-1.25  c0-13.334,0-26.668,0-40.002c0.417,0,0.833,0,1.25,0c0-0.417,0-0.833,0-1.25c0-5.833,0-11.667,0-17.501c0-0.417,0-0.833,0-1.25  c0-4.583,0-9.167,0-13.75c0-0.417,0-0.834,0-1.25c0-5.418,0-10.834,0-16.251c0-0.417,0-0.833,0-1.25c0-9.168,0-18.334,0-27.501  c0.417,0,0.833,0,1.25,0c0-0.417,0-0.834,0-1.25c0-9.584,0-19.168,0-28.752c0-0.417,0-0.833,0-1.25c0-5,0-10,0-15  c0-0.417,0-0.833,0-1.25c0-5.068,0-10.142,0-15.219c-0.428,0.146-0.845,0.219-1.25,0.219c-0.381,0-0.788-0.042-1.219-0.125  c-0.01,0.876-0.021,1.751-0.031,2.625c-1.85,3.392-3.579,6.975-5.188,10.75c0.958,2.021,1.438,3.646,1.438,4.875  c0,2.917-0.729,5.104-2.188,6.563c-0.727,0.716-1.644,1.341-2.75,1.875c-0.022,6.712-3.251,10.649-9.688,11.813  c-0.208,0-0.396,0.021-0.562,0.063c-0.042,0-0.063,0.021-0.063,0.062c-2.166,0.292-4.646,0.313-7.438,0.063  c-12.042-1.042-21.876-3.167-29.501-6.376c-16.458-6.875-29.063-17.188-37.814-30.938c1.583-0.917,2.417-2.584,2.5-5  c0-0.363,0-0.728,0-1.094v-0.031c0-0.042,0-0.083,0-0.125c0.019-1.79,0.436-3.395,1.25-4.813c0-0.058,0-0.121,0-0.188  c0.034,0.006,0.065,0.017,0.094,0.031c0.417-0.682,0.928-1.317,1.531-1.906c0.191-0.184,0.389-0.361,0.594-0.531  c-0.313-0.041-0.636-0.072-0.969-0.094c0-0.417,0-0.833,0-1.25c0-0.417,0-0.833,0-1.25c5.417-17.917,10.771-35.855,16.063-53.814  c0.125-0.375,0.188-0.771,0.188-1.188c0-0.417,0-0.833,0-1.25c0-3.75,0-7.5,0-11.25c0.417,0,0.833,0,1.25,0c0-0.417,0-0.833,0-1.25  c0-3.75,0-7.5,0-11.25c0.417,0,0.833,0,1.25,0c0-0.417,0-0.833,0-1.25c0-3.75,0-7.5,0-11.25  c5.292-33.459,17.897-59.606,37.814-78.441c0.208-0.208,0.521-0.313,0.938-0.313c0.034,0.087,0.065,0.17,0.094,0.25  c0.19-0.232,0.388-0.461,0.593-0.688c1.833-2,4.021-3.125,6.563-3.375c0.26-0.025,0.521-0.036,0.781-0.032  c29.936-13.545,58.531-28.41,85.785-44.595c0.599-1.196,1.37-2.196,2.313-3c1.858-1.562,4.941-2.916,9.25-4.063  c1.417-1.245,2.688-2.641,3.813-4.188c0.125-0.208,0.396-0.313,0.813-0.313c0.002,1.163,0.034,2.298,0.094,3.407  c0.288-0.049,0.58-0.102,0.875-0.156c0.067-0.636,0.161-1.303,0.281-2c4.833-0.5,11.625,0.833,20.376,4  c7.667,2.75,15.875,4.75,24.626,6c9.583,0,19.167,0,28.751,0c0.417,0,0.833,0,1.25,0c16-2.333,29.335-4.625,40.002-6.875  l0.125,1.875c0.012,0.15,0.021,0.296,0.031,0.438c0.547-0.132,1.12-0.236,1.719-0.313c0.022-0.081,0.043-0.165,0.063-0.25  c0.625-2.792,2.063-3.167,4.313-1.125c0.699,0.466,1.334,0.987,1.906,1.563c4.246,0.748,7.402,2.769,9.47,6.063l0.03,0.031  l0.781,0.407c27.799,14.002,56.154,27.524,85.066,40.563c2.524-0.098,5.379,2.902,8.563,9.001  c17.44,16.484,29.754,38.402,36.939,65.753c9.376,35.709,18.876,69.586,28.501,101.629c-0.416,0-0.729,0.104-0.938,0.313  C521.125,240.138,520.719,240.523,520.306,240.901z"/>
<path fill-rule="evenodd" clip-rule="evenodd" fill="#514B4E" d="M451.322,68.108c4.092,16.832,3.635,33.101-1.372,48.807  c0,2.925,0,5.844,0,8.758c0,0.421,0,0.836,0,1.247c-0.41,0-0.826,0-1.247,0c0,4.586,0,9.173,0,13.76c0,0.41,0,0.825,0,1.246  c0,0.411,0,0.826,0,1.247c-0.789,25.458-6.206,46.293-16.253,62.504c-0.337,22.839,2.351,42.779,8.063,59.822  c0.043,0.116,0.274,0.173,0.694,0.173c10.205,1.294,20.204,0.921,29.998-1.12c0.421-0.084,0.836-0.126,1.246-0.126  c0-0.411,0-0.826,0-1.247c6.124-0.958,11.583-2.541,16.381-4.75c0.336-0.168,0.71-0.252,1.119-0.252c0-0.421,0-0.836,0-1.247  c5.124-1.546,9.769-3.545,13.935-5.997c0.294-0.168,0.652-0.252,1.073-0.252c6.417-2.756,11.935-6.401,16.553-10.936  c0.211-0.21,0.526-0.315,0.947-0.315c-9.627-32.043-19.126-65.923-28.498-101.639c-7.965-30.287-22.22-53.91-42.765-70.868  C451.196,67.335,451.238,67.729,451.322,68.108z M446.273,139.418c-0.042-0.41-0.063-0.826-0.063-1.247  c0-0.41,0.037-0.826,0.11-1.247c4.293-24.753,5.086-49.339,2.383-73.755c-29.004-13.087-57.444-26.647-85.322-40.681l-1.798-0.947  c-2.252,3.671-4.045,8.379-5.382,14.123c0,0.421-0.084,0.8-0.252,1.136c-1.705,3.619-4.12,6.575-7.243,8.868  c0,0.421,0,0.836,0,1.247c0,0.42-0.105,0.736-0.315,0.947c-7.007,6.743-15.654,11.846-25.942,15.307c0,0.42-0.042,0.652-0.127,0.694  c-6.837,1.789-13.881,3.224-21.129,4.308c-0.411,0-0.826,0.042-1.247,0.126c-10.288,2.335-19.456,1.877-27.504-1.373  c6.249,0,12.502,0,18.762,0c0.411,0,0.826,0,1.247,0c0-0.421,0-0.836,0-1.247c10.078,0.073,18.847-1.115,26.305-3.566  c0.379-0.126,0.779-0.19,1.199-0.19c10.868-3.292,19.721-8.605,26.558-15.938c0.211-0.21,0.521-0.316,0.932-0.316  c0-0.42,0-0.836,0-1.247c3.083-2.756,5.502-6.133,7.259-10.13c0.169-0.336,0.252-0.71,0.252-1.121c0-0.421,0.085-0.794,0.253-1.12  c1.157-2.546,1.488-5.923,0.994-10.131c0-0.421-0.063-0.815-0.189-1.184c-0.957-2.714-2.562-4.818-4.813-6.312  c-2.252-2.041-3.688-1.667-4.308,1.12c-6.376,28.751-29.109,41.313-68.202,37.683c-5.375-0.495-10.083-1.136-14.123-1.926  c-23.87-4.586-35.825-18.546-35.868-41.879c-0.421,0-0.695,0.105-0.82,0.315c-2.662,3.661-6.139,6.47-10.431,8.426  c-0.042,7.543,1.52,13.46,4.687,17.752c0.21,0.252,0.315,0.589,0.315,1.01c3.251,3.409,6.292,7.054,9.121,10.936  c0.168,0.2,0.457,0.299,0.868,0.299c0.421,0,0.757,0.105,1.01,0.316c4.534,3.755,9.2,7.4,13.997,10.936  c-0.42,0-0.815-0.058-1.183-0.173c-6.007-2.251-11.031-5.523-15.07-9.815c-0.421,0-0.731-0.105-0.931-0.315  c-3.419-3.251-6.443-6.896-9.073-10.936c-0.832-1.672-1.62-3.361-2.367-5.065c-2.503-5.46-4.213-9.605-5.128-12.435  c-0.421,0-0.773,0.084-1.057,0.253c-28.214,16.748-57.865,32.081-88.952,45.999c0.42,9.584,1.236,18.751,2.446,27.504  c0.042,0.41,0.063,0.826,0.063,1.247c-0.421,0-0.836,0-1.247,0c0,2.493,0,4.992,0,7.496c0,0.421,0,0.836,0,1.246h-0.631  c0-13.75-1.872-25.416-5.617-35c-0.421,0-0.736,0.105-0.947,0.316c-19.914,18.83-32.517,44.978-37.809,78.441  c0,3.746,0,7.496,0,11.251c0,0.411,0,0.826,0,1.247c-0.421,0-0.836,0-1.247,0c0,3.755,0,7.505,0,11.25c0,0.421,0,0.837,0,1.247  c-0.42,0-0.842,0-1.262,0c0,3.755,0,7.505,0,11.251c0,0.421,0,0.836,0,1.247c0,0.42-0.063,0.821-0.189,1.199  c-5.292,17.958-10.646,35.894-16.064,53.81c0,0.421,0,0.836,0,1.247c0,0.42,0,0.836,0,1.246c3.135,0.211,5.365,1.357,6.691,3.44  c0.126,0.211,0.4,0.316,0.82,0.316c16.043,16.874,40.207,25.627,72.493,26.258c0.42,0,0.842,0,1.263,0  c0.41,0,0.636-0.063,0.678-0.189c2.041-5.292,4.313-10.231,6.816-14.817c0.337-27.836-3.434-51.337-11.314-70.505  c-8.037-19.494-12.182-42.658-12.435-69.495c0-0.42,0-0.841,0-1.262c0-2.914,0-5.828,0-8.742c0.41,0,0.826,0,1.247,0  c1.462,38.956,8.984,72.062,22.565,99.319c4.587,9.163,10.399,17.311,17.437,24.443c0,0.41-0.105,0.721-0.316,0.931  c-0.21,0.21-0.521,0.315-0.931,0.315c-4.292-1.957-7.795-4.75-10.51-8.379c-3.408-4.586-5.323-3.045-5.744,4.624  c1.084,2.672,1.873,5.591,2.367,8.758c0.084,0.41,0.126,0.826,0.126,1.247c0,10.415,0,20.83,0,31.245c0,0.42,0,0.836,0,1.246  c0,5.008,0,10.01,0,15.007c0,0.421,0,0.837,0,1.246c0,9.584,0,19.168,0,28.752c0,0.421,0,0.841,0,1.263c-0.41,0-0.826,0-1.247,0  c0,9.162,0,18.325,0,27.488c0,0.42,0,0.842,0,1.262c0,5.407,0,10.821,0,16.238c0,0.42,0,0.842,0,1.262c0,4.576,0,9.158,0,13.745  c0,0.421,0,0.836,0,1.246c0,5.839,0,11.673,0,17.5c0,0.421,0,0.837,0,1.246c-0.411,0-0.826,0-1.247,0c0,13.341,0,26.674,0,40.003  c0,0.421,0,0.842,0,1.263c0,0.41,0,0.825,0,1.246c0.337,9.921-0.494,18.668-2.493,26.242c-0.631,5.218-0.279,9.41,1.058,12.576  c0.126,0.368,0.189,0.764,0.189,1.185c15.412,13.329,35.41,22.038,59.995,26.131c0.421,0.074,0.836,0.11,1.247,0.11  c7.174,1.168,14.675,1.982,22.502,2.446c0.421,0.042,0.841,0.063,1.262,0.063c3.125,0.211,6.039,0.585,8.742,1.121  c0.421,0.084,0.836,0.127,1.247,0.127c2.924,0,5.843,0,8.758,0c0.41,0,0.825,0,1.246,0c18.336,0,36.673,0,55.01,0  c0.41,0,0.825,0,1.246,0c16.001-0.663,31.417-1.895,46.251-3.693c0.41-0.042,0.825-0.063,1.247-0.063  c5.123-1.126,10.54-1.936,16.253-2.431c0.421-0.041,0.836-0.062,1.246-0.062c0-0.422,0-0.837,0-1.247  c14.298-1.957,27.236-5.229,38.819-9.815c0.378-0.126,0.773-0.189,1.183-0.189c0-0.421,0-0.836,0-1.247  c5.123-1.546,9.395-3.944,12.814-7.195c0.21-0.199,0.525-0.3,0.946-0.3c2.199-1.126,3.22-2.75,3.062-4.876  c-1.126-15.591-2.146-33.969-3.062-55.135c0-0.421,0-0.837,0-1.247c0-11.256,0-22.507,0-33.753c0-0.421,0-0.836,0-1.247  c0-7.922,0-15.838,0-23.749c0-0.42,0.017-0.842,0.047-1.262c0.59-9.373,0.153-17.705-1.31-24.996c0-0.42,0-0.836,0-1.246  c0-10.835,0-21.672,0-32.507c1.463-6.87,1.899-14.786,1.31-23.749c-0.03-0.421-0.047-0.836-0.047-1.246c0-0.421,0-0.836,0-1.247  c0-4.177,0-8.347,0-12.514c0.41,0,0.616-0.021,0.616-0.063c1.041-8.911,0.835-16.806-0.616-23.686c0-0.411,0-0.826,0-1.247  c0.158-11.499,0.158-21.082,0-28.751c0,0.421-0.105,0.773-0.315,1.058c-6.092,8.836-13.486,14.317-22.187,16.442  c22.207-15.296,35.1-39.881,38.676-73.756c0.042-0.41,0.063-0.825,0.063-1.246C446.41,150.469,446.852,145.467,446.273,139.418z   M510.323,181.55c3.136,12.708,7.055,25.211,11.757,37.509c4.544,11.793,8.421,24.417,11.63,37.872  c-17.126,16.621-40.46,27.015-70,31.181c-0.421,0.042-0.841,0.063-1.263,0.063c0-0.409-0.021-0.614-0.063-0.614  c-4.123-0.422-8.268-0.632-12.434-0.632c0,0.421,0,0.837,0,1.246c-0.41,0-0.742-0.1-0.995-0.3  c-8.668-7.132-14.17-17.447-16.505-30.944c0,6.669,0,13.334,0,19.993c0,0.421,0,0.843,0,1.263c-0.41,0-0.826,0-1.247,0  c0,3.745,0,7.496,0,11.251c0,0.41,0,0.826,0,1.246c-0.421,0-0.836,0-1.246,0c0,8.753,0,17.501,0,26.243c0,0.421,0,0.841,0,1.263  c0,4.166,0.204,8.311,0.615,12.434c0,0.042,0.21,0.063,0.631,0.063c0,4.576,0,9.157,0,13.745c0,0.42,0,0.835,0,1.246  c0,27.92,0.211,55.84,0.631,83.76h0.616c0,0.421,0.021,0.836,0.063,1.247c2.756,23.88,6.485,46.798,11.188,68.753  c-18.126,16.874-42.67,27.521-73.629,31.938c-30.666,4.376-64.04,7.002-100.124,7.875c-58.796,1.419-101.718-12.268-128.765-41.061  c0-0.42,0-0.836,0-1.246c0-5.008,0-10.01,0-15.007c4.839-23.912,6.927-50.58,6.265-80.004c0-0.411,0-0.826,0-1.246  c1.452-5.208,1.888-11.458,1.31-18.748c-0.042-0.42-0.063-0.841-0.063-1.262c0-0.411,0-0.826,0-1.247c0-4.996,0-9.994,0-14.991  c0-0.42,0-0.842,0-1.262c0-4.576,0-9.158,0-13.745c0-0.42,0-0.836,0-1.246c0.621-19.799,0.205-38.55-1.247-56.255  c0-0.422,0.058-0.816,0.173-1.185c1.757-6.501,2.53-14.023,2.319-22.564h-0.63c0.673,15.254-4.535,24.422-15.623,27.504  c-0.41,0-0.826,0-1.247,0c-4.166,0-8.332,0-12.498,0c-11.918-1.42-22.67-4.108-32.254-8.063c-9.331-3.798-17.79-8.362-25.374-13.696  c-5.628-3.956-9.336-9.621-11.125-16.996c11.33-26.174,18.789-55.803,22.376-88.888c4.166-38.703,15.938-69.495,35.315-92.376  c5.46-6.501,12.44-11.604,20.94-15.307c35.789-15.749,69.163-33.979,100.124-54.693c12.456,5.46,26.621,9.189,42.496,11.188  c0.42,0.042,0.841,0.063,1.262,0.063c4.787,1.462,10.599,1.672,17.437,0.631c0.042,0,0.063-0.21,0.063-0.631  c20.325-0.495,37.847-3.767,52.563-9.815c0.368-0.126,0.763-0.189,1.184-0.189c35.873,19.967,72.293,39.634,109.26,59.001  c6.491,3.419,11.699,8.358,15.622,14.817C487.454,109.82,500.951,143.426,510.323,181.55z M490.078,259.677  c-4.703,2.714-10.162,4.713-16.379,5.996c-0.41,0-0.785,0.084-1.121,0.252c-8.879,3.756-18.92,4.508-30.123,2.257  c-0.422,0-0.838,0-1.248,0c0.41,2.914,2.494,4.182,6.249,3.803c0.411-0.042,0.826-0.063,1.247-0.063  c9.048,0.295,16.984-0.473,23.812-2.303c0.38-0.126,0.774-0.19,1.185-0.19c0-0.421,0-0.836,0-1.246  c6.585-1.336,12.46-3.335,17.625-5.997c0.338-0.168,0.716-0.252,1.137-0.252c0-0.42,0-0.836,0-1.246  c3.166-0.168,5.729-0.9,7.686-2.193c0.293-0.21,0.646-0.316,1.057-0.316c0-0.421,0-0.836,0-1.247c1.788,0.537,2.83,0.163,3.125-1.12  c0-0.084,0.21-0.126,0.631-0.126c4.828-1.841,9.078-4.24,12.75-7.196c0.252-0.21,0.584-0.315,0.994-0.315  c4.166-2.041,5.665-4.455,4.497-7.243c-0.084-0.168-0.331-0.252-0.741-0.252c0,0.421-0.104,0.731-0.316,0.931  c-4.586,4.177-9.898,7.617-15.938,10.32c0,0.421-0.083,0.674-0.252,0.758c-0.664,0.326-1.41,0.489-2.241,0.489  c0,0.421,0,0.836,0,1.247c-0.421,0-0.82,0.063-1.199,0.189c-3.787,1.547-7.559,3.151-11.313,4.813  C490.789,259.424,490.414,259.508,490.078,259.677z M493.708,263.18c-0.422,0-0.795,0.084-1.121,0.252  c-5.459,2.788-11.335,5.202-17.626,7.243c-0.421,0-0.82,0.063-1.199,0.189c-3.576,0.916-7.348,1.689-11.314,2.32  c-0.41,0-0.826,0-1.246,0c-4.166,0-8.332,0-12.498,0c-0.421,0-0.836,0-1.247,0c-1.673,0-3.34,0-5.001,0  c0,0.831,0.168,1.578,0.505,2.241c0.083,0.168,0.331,0.252,0.741,0.252c2.125,8.711,10.083,11.855,23.874,9.437  c26.627-4.576,46.336-15.159,59.129-31.75l0.757-2.682c-1.252-5.46-3.855-5.981-7.812-1.563c-0.21,0.21-0.525,0.315-0.946,0.315  c0,0.411-0.105,0.679-0.315,0.805c-4.997,3.418-10.31,6.48-15.938,9.184c-0.41,0-0.783,0.084-1.12,0.252  C498.91,260.887,496.368,262.055,493.708,263.18z M344.95,13.794c-10.668,2.251-24.002,4.544-40.003,6.879c-0.42,0-0.836,0-1.246,0  c-9.584,0-19.167,0-28.751,0c-8.753-1.251-16.964-3.255-24.633-6.012c-8.752-3.167-15.543-4.498-20.372-3.992  c-0.958,5.543-0.226,9.421,2.193,11.63c0.2,0.168,0.3,0.457,0.3,0.868c9.542,4.629,20.377,7.921,32.507,9.878  c0.42,0.084,0.836,0.126,1.247,0.126c9.794,1.462,20.609,1.667,32.443,0.616c0.042,0,0.063-0.206,0.063-0.616  c1.252,0,2.504,0,3.756,0c0.41,0,0.825,0,1.246,0c0-0.421,0-0.836,0-1.247c7.249,0.168,13.519-0.605,18.81-2.32  c0.379-0.126,0.773-0.189,1.184-0.189c3.167-0.579,6.106-1.347,8.82-2.304c0.368-0.126,0.764-0.189,1.185-0.189  c2.829-0.916,5.391-2.083,7.685-3.503c0.295-0.168,0.646-0.252,1.057-0.252c2.052-1.294,2.931-3.792,2.636-7.496L344.95,13.794z   M403.762,503.383c0.378-0.127,0.773-0.189,1.184-0.189c6.881-3.124,13.593-6.376,20.135-9.753c0.326-0.168,0.699-0.252,1.121-0.252  c0-0.421,0-0.836,0-1.247c3.545-1.041,6.19-3.04,7.938-5.996c0.125-0.168,0.399-0.253,0.82-0.253h0.615  c-0.41-4.208-2.283-4.208-5.617,0c0,0.411-0.084,0.68-0.253,0.805c-4.503,2.716-9.005,5.361-13.508,7.938  c-0.41,0-0.783,0.084-1.12,0.253c-10.71,5.038-22.834,8.704-36.373,10.998c-0.42,0-0.836,0.042-1.246,0.126  c-5.755,1.252-12.009,2.046-18.763,2.383c0,0.41-0.021,0.615-0.063,0.615c-15.116,1.915-30.513,3.378-46.188,4.388  c0-0.422-0.083-0.674-0.251-0.758c-0.663-0.337-1.41-0.505-2.241-0.505c-0.421,0-0.836,0-1.246,0c-17.927,0-35.847,0-53.763,0  c0,0.421,0,0.841,0,1.263c-0.41,0-0.825,0-1.247,0c-3.334,0-6.669,0-10.004,0c-0.411,0-0.826,0.015-1.247,0.047  c-3.997,0.21-7.332-0.227-10.004-1.31c-0.411,0-0.826,0-1.247,0c-9.374-0.2-17.705-1.446-24.995-3.74  c-0.421,0-0.836-0.021-1.247-0.063c-24.585-3.713-43.752-12.86-57.502-27.44c-0.421,0-0.842,0-1.262,0  c-0.579,2.251-0.242,3.665,1.01,4.244c0.168,0.084,0.252,0.337,0.252,0.757c15.959,14.045,36.788,23.171,62.489,27.379  c0.42,0.084,0.841,0.127,1.262,0.127c6.701,1.199,13.781,2.009,21.24,2.429c0.421,0.043,0.841,0.063,1.262,0.063  c3.083-0.578,5.266-0.269,6.549,0.931c0.21,0.212,0.526,0.316,0.947,0.316c4.997,0,9.994,0,14.991,0c0.42,0,0.841,0,1.262,0  c30.876,0.873,60.043,0.063,87.5-2.43c0.421-0.042,0.837-0.063,1.246-0.063c4.208,0.042,7.979-0.337,11.315-1.137  c0.378-0.073,0.772-0.109,1.183-0.109c0-0.422,0-0.842,0-1.263c6.88-0.2,13.155-0.989,18.826-2.367  c0.368-0.084,0.763-0.127,1.183-0.127c0-0.42,0-0.836,0-1.246C387.74,507.237,396.093,505.634,403.762,503.383z M404.945,504.44  c-0.41,0-0.784,0.083-1.12,0.252c-6.249,2.83-13.376,4.829-21.382,5.997c-0.41,0-0.805,0.063-1.185,0.188  c-6.08,1.746-12.765,2.935-20.056,3.566c-0.42,0-0.836,0.042-1.246,0.126c-4.219,0.705-8.806,1.078-13.761,1.12  c0,0.421-0.021,0.632-0.063,0.632c-7.795,0.915-15.691,1.535-23.686,1.861c-0.422,0-0.837,0-1.247,0c-5.007,0-10.01,0-15.007,0  c0,0.422,0,0.842,0,1.263c-0.41,0-0.825,0-1.247,0c-15.001,0-30.002,0-45.004,0c0-0.421-0.084-0.673-0.253-0.758  c-0.662-0.336-1.409-0.505-2.24-0.505c-0.421,0-0.842,0-1.262,0c-4.997,0-9.994,0-14.991,0c-0.421,0-0.836,0-1.247,0  c-0.421,0-0.842,0-1.262,0c-0.411,0-0.826,0.021-1.247,0.063c-4.786,0.59-8.537,0.153-11.25-1.31c-0.411,0-0.826,0-1.247,0  c-6.249,0-11.667-0.831-16.253-2.493c-0.41,0-0.826-0.021-1.247-0.063c-25.669-3.882-46.088-13.029-61.257-27.44  c-0.411,0-0.826,0-1.247,0c0,4.165,0.211,8.31,0.631,12.434c0,0.042,0.205,0.063,0.616,0.063  c21.05,20.209,51.884,30.629,92.502,31.261c0.42,0,0.841,0,1.262,0c5.207,1.451,11.456,1.888,18.747,1.31  c0.421-0.042,0.836-0.063,1.247-0.063c15.001,0,30.003,0,45.004,0c0.422,0,0.837,0,1.247,0c7.501,0,14.98-0.211,22.439-0.632  c0.041,0,0.063-0.205,0.063-0.614c44.584-1.253,80.73-10.983,108.439-29.193c0.212-0.126,0.316-0.399,0.316-0.821  c1.041-2.703,1.083-6.453,0.126-11.251c-0.084-0.41-0.126-0.825-0.126-1.246c-0.421,0-0.772,0.085-1.058,0.253  c-2.882,1.661-5.864,3.245-8.947,4.749c0,0.421-0.1,0.695-0.3,0.82C420.805,498.585,413.403,502.062,404.945,504.44z   M142.446,278.187c0.41-0.42,0.741-0.884,0.994-1.388c0.168-0.327,0.252-0.7,0.252-1.121c-0.421,0-0.836,0-1.246,0  c-33.843-0.337-58.844-9.505-75.002-27.504c-0.421,0-0.8-0.079-1.136-0.237c-1.789-1.052-3.913-1.804-6.375-2.257  c0,0.832,0,1.663,0,2.494c0,0.421,0,0.841,0,1.262c2.504,0.831,4.924,1.831,7.259,2.999c0.168,0.084,0.252,0.332,0.252,0.741  c-0.421,0-0.841,0-1.263,0c0,0.421,0,0.836,0,1.247c-0.41,0-0.678-0.1-0.805-0.3c-1.336-2.083-3.566-3.23-6.69-3.44  c0,0.41,0,0.825,0,1.246c-0.084,2.419-0.916,4.087-2.494,5.002c8.743,13.75,21.345,24.064,37.809,30.944  c7.627,3.209,17.458,5.334,29.493,6.376c12.466,1.115,18.362-3.409,17.689-13.571c-0.41,0-0.826,0-1.247,0  c-24.08,0.337-43.248-4.244-57.502-13.744c-0.411,0-0.763-0.084-1.058-0.252c-2.335-1.378-4.481-2.961-6.438-4.75  c0.41,0,0.72-0.105,0.931-0.315c0.21-0.211,0.315-0.521,0.315-0.931c2.546,1.199,4.734,2.761,6.564,4.686  c0.21,0.2,0.521,0.3,0.931,0.3c11.961,6.007,25.716,10.157,41.265,12.45c0.41,0.043,0.826,0.063,1.247,0.063  c3.535,1.452,8.117,1.889,13.745,1.311c0.421-0.043,0.836-0.063,1.247-0.063c0.42,0,0.736-0.105,0.947-0.316  C142.34,278.907,142.446,278.598,142.446,278.187z M340.326,25.976c-1.336,1.631-3.545,2.362-6.627,2.193  c0,0.421-0.085,0.695-0.253,0.821c-1.914,1.115-4.328,1.673-7.242,1.673c0,0.421-0.043,0.652-0.127,0.694  c-4.924,1.21-9.883,2.23-14.881,3.061c-0.42,0-0.814,0.042-1.183,0.126c-4.588,1.21-10.025,1.583-16.317,1.12  c-0.421,0-0.836,0-1.247,0c-7.091,0-14.176,0-21.256,0c-0.421,0-0.836-0.021-1.246-0.063c-14.581-0.789-26.663-4.098-36.247-9.926  c0,0.411,0,0.826,0,1.247c16.243,18.746,41.969,25.206,77.181,19.377c14.128-2.335,24.231-9.21,30.313-20.625  C340.784,25.676,340.494,25.776,340.326,25.976z"/>
</g></defs><use x="0" y="0" width="587" height="543" preserveAspectRatio="none" xlink:href="#id081529186074391" transform="matrix(1,0,0,1,0,0)" id="productImage" laservice="true" style=""/><text style="text-anchor: middle; font: 32px Action Man; cursor: pointer;" x="0" y="0" text-anchor="middle" stroke="none" fill="#000000" letter-spacing="0" transform="matrix(1,0,0,1,290,280)" font-size="32px" font-weight="normal" font-style="normal" font-family="Action Man" stroke-width="1" line-leading="1.2" ldy="13" id="id881529186072306" clip-path="url(#174A7B89-D47C-40AE-A38E-D604BD17DCEC)"><tspan dy="13">jkllk</tspan></text><path style="" fill="#cc0000" stroke="none" d="M470,0L532,0L587,55L587,117Z" stroke-width="1" transform="matrix(1,0,0,1,0,0)" id="id711529186072319" clip-path="url(#BDF6EB4C-1D2C-4467-AB73-C752B4A2521B)"/><path style="" fill="#cc0000" stroke="none" d="M504.561,13.174L510.30899999999997,7.425L508.241,5.356999999999999L509.567,4.030999999999999L515.21,9.674L513.883,11L511.82500000000005,8.942L506.07700000000006,14.690999999999999L504.561,13.174Z" stroke-width="1" transform="matrix(1,0,0,1,0,0)" id="id631529186072324" clip-path="url(#67F1EE0B-2575-425D-8BDA-472C5A093859)"/><path style="" fill="#cc0000" stroke="none" d="M513.099,21.712L514.2230000000001,17.809L513.1200000000001,16.706L510.6060000000001,19.22L509.10000000000014,17.714L516.1740000000001,10.639L519.4830000000001,13.948C520.9580000000001,15.423,520.9040000000001,17.3,519.589,18.615000000000002C518.3480000000001,19.856,516.873,19.739,515.9290000000001,19.156000000000002L514.8370000000001,23.452L513.099,21.712ZM518.052,17.056C518.635,16.473000000000003,518.539,15.656,517.946,15.062000000000001L516.355,13.471000000000002L514.446,15.380000000000003L516.037,16.971000000000004C516.63,17.564,517.447,17.66,518.052,17.056Z" stroke-width="1" transform="matrix(1,0,0,1,0,0)" id="id251529186072331" clip-path="url(#864784C0-C9B9-41C0-B158-7AFD697CCF0B)"/><path style="" fill="#cc0000" stroke="none" d="M515.921,24.534L522.995,17.459L524.501,18.965L517.427,26.04L515.921,24.534Z" stroke-width="1" transform="matrix(1,0,0,1,0,0)" id="id331529186072338" clip-path="url(#92A2EA46-A364-4F60-B8E1-D902376E1A70)"/><path style="" fill="#cc0000" stroke="none" d="M523.716,32.329L524.469,30.685000000000002L521.436,27.652L519.791,28.404L518.0840000000001,26.697L527.884,22.348L529.772,24.235999999999997L525.423,34.036L523.716,32.329ZM527.322,24.799L523.176,26.74L525.3810000000001,28.945L527.322,24.799Z" stroke-width="1" transform="matrix(1,0,0,1,0,0)" id="id961529186072343" clip-path="url(#BBD2FDA7-C1E3-452C-9C15-66DEC2050773)"/><path style="" fill="#cc0000" stroke="none" d="M526.018,34.631L533.092,27.556L534.609,29.073L528.86,34.822L531.85,37.812000000000005L530.525,39.138000000000005L526.018,34.631Z" stroke-width="1" transform="matrix(1,0,0,1,0,0)" id="id131529186072349" clip-path="url(#788007B1-0C36-47DB-B52E-87141AC145F6)"/><path style="" fill="#cc0000" stroke="none" d="M536.624,45.237L540.803,35.267L541.503,35.967000000000006L537.6850000000001,44.940000000000005L546.647,41.111000000000004L547.3470000000001,41.81100000000001L537.3770000000001,45.99000000000001L536.624,45.237Z" stroke-width="1" transform="matrix(1,0,0,1,0,0)" id="id061529186072355" clip-path="url(#4E7D6280-E68E-4FA0-953E-E64659C48603)"/><path style="" fill="#cc0000" stroke="none" d="M541.313,49.926L548.387,42.851L552.8729999999999,47.336999999999996L552.3209999999999,47.888999999999996L548.439,44.007L545.819,46.626999999999995L549.627,50.434999999999995L549.0759999999999,50.986999999999995L545.2679999999999,47.178999999999995L542.4669999999999,49.97899999999999L546.3489999999998,53.86099999999999L545.7979999999998,54.41299999999999L541.313,49.926Z" stroke-width="1" transform="matrix(1,0,0,1,0,0)" id="id781529186072358" clip-path="url(#BCA2D851-50EF-4BB9-8E03-0C7E2FCBBFC2)"/><path style="" fill="#cc0000" stroke="none" d="M551.441,60.055L552.384,55.144L550.8240000000001,53.583999999999996L547.897,56.51199999999999L547.293,55.907999999999994L554.367,48.83299999999999L557.0079999999999,51.47399999999999C558.228,52.69399999999999,558.386,54.40099999999999,557.0919999999999,55.69499999999999C555.8089999999999,56.977999999999994,554.1959999999999,56.788,553.0939999999998,55.769999999999996L552.1709999999998,60.787L551.441,60.055ZM556.458,55.059C557.3489999999999,54.168,557.3489999999999,52.916,556.405,51.973L554.4209999999999,49.989L551.377,53.032999999999994L553.361,55.016999999999996C554.305,55.96,555.567,55.95,556.458,55.059Z" stroke-width="1" transform="matrix(1,0,0,1,0,0)" id="id491529186072364" clip-path="url(#7BEB0090-2043-4D19-A7A9-DE082D2F3599)"/><path style="" fill="#cc0000" stroke="none" d="M554.199,60.818L555.0469999999999,60.754C554.983,61.73,555.2159999999999,62.980999999999995,556.2349999999999,64C557.6769999999999,65.442,558.8979999999999,65.05,559.5029999999999,64.446C561.5809999999999,62.367,556.2579999999999,59.207,558.7289999999999,56.736C559.8849999999999,55.58,561.656,55.887,562.939,57.169999999999995C563.9889999999999,58.21999999999999,564.424,59.397999999999996,564.3389999999999,60.565L563.4899999999999,60.607C563.5959999999999,59.483,563.1509999999998,58.485,562.3559999999999,57.69C561.4119999999999,56.745999999999995,560.1599999999999,56.576,559.3959999999998,57.339C557.5819999999999,59.152,562.8209999999998,62.397999999999996,560.1799999999998,65.039C559.2679999999998,65.95100000000001,557.5719999999999,66.44,555.6609999999998,64.53C554.495,63.363,554.092,62.005,554.199,60.818Z" stroke-width="1" transform="matrix(1,0,0,1,0,0)" id="id511529186072374" clip-path="url(#D5D3D269-2F26-4A1A-818C-61CFAFCC0ABC)"/><path style="" fill="#cc0000" stroke="none" d="M559.757,68.37L566.8309999999999,61.295L567.435,61.899L560.361,68.974L559.757,68.37Z" stroke-width="1" transform="matrix(1,0,0,1,0,0)" id="id481529186072385" clip-path="url(#A02E3B4C-A376-47C5-8D6E-23D7BBB271D6)"/><path style="" fill="#cc0000" stroke="none" d="M565.389,66.938C567.457,64.87,570.4060000000001,64.636,572.484,66.714C574.552,68.782,574.331,71.743,572.2620000000001,73.81099999999999C570.195,75.87899999999999,567.234,76.101,565.1650000000001,74.03299999999999C563.087,71.955,563.321,69.007,565.389,66.938ZM571.625,73.175C573.418,71.383,573.63,68.964,571.933,67.267C570.226,65.56,567.818,65.782,566.025,67.575C564.244,69.357,564.01,71.776,565.717,73.483C567.414,75.179,569.844,74.957,571.625,73.175Z" stroke-width="1" transform="matrix(1,0,0,1,0,0)" id="id201529186072393" clip-path="url(#E0355C93-0A9A-4075-9541-4BA3E1B8EB39)"/><path style="" fill="#cc0000" stroke="none" d="M575.284,83.897L576.906,73.364L570.829,79.44200000000001L570.2249999999999,78.83800000000001L577.2989999999999,71.763L577.9139999999999,72.378L576.3549999999999,82.804L582.3469999999999,76.811L582.9509999999999,77.415L575.877,84.49000000000001L575.284,83.897Z" stroke-width="1" transform="matrix(1,0,0,1,0,0)" id="id371529186072407" clip-path="url(#E90F3E5D-1041-40DD-B680-4876FDA8E9B6)"/><path style="opacity: 0;" fill="#000000" stroke="none" d="M88.701,103.649L125.01499999999999,67.33500000000001L132.79999999999998,75.12L103.29099999999998,104.629L118.64399999999998,119.982L111.83799999999998,126.788L88.701,103.649Z" opacity="0" stroke-width="1" transform="matrix(1,0,0,1,0,0)" id="id321529186072412" clip-path="url(#FF7C5F23-8A4E-44AD-AD4B-25E94F5C61EE)"/><path style="opacity: 0;" fill="#000000" stroke="none" d="M117.068,132.016L153.382,95.702L161.112,103.432L124.798,139.746L117.068,132.016Z" opacity="0" stroke-width="1" transform="matrix(1,0,0,1,0,0)" id="id721529186072416" clip-path="url(#BB486523-20AA-440B-8144-E520F41BFC29)"/><path style="opacity: 0;" fill="#000000" stroke="none" d="M142.167,157.114L164.49,106.808L173.255,115.57300000000001L155.453,153.522L193.4,135.718L202.16500000000002,144.483L151.85900000000004,166.806L142.167,157.114Z" opacity="0" stroke-width="1" transform="matrix(1,0,0,1,0,0)" id="id121529186072419" clip-path="url(#E378BF6B-53BE-489A-9415-95681E2519E0)"/><path style="opacity: 0;" fill="#000000" stroke="none" d="M169.227,184.175L205.541,147.86100000000002L231.238,173.55800000000002L224.432,180.36400000000003L206.46499999999997,162.39700000000005L198.84299999999996,170.01900000000006L216.42899999999997,187.60500000000008L209.62299999999996,194.4110000000001L192.03699999999998,176.8250000000001L183.76199999999997,185.1000000000001L201.72899999999998,203.06700000000012L194.92299999999997,209.87300000000013L169.227,184.175Z" opacity="0" stroke-width="1" transform="matrix(1,0,0,1,0,0)" id="id311529186072422" clip-path="url(#444CCA1F-33EC-4423-86BA-CE53C33D9596)"/><path style="opacity: 0;" fill="#000000" stroke="none" d="M226.068,241.016L229.93300000000002,232.577L214.36200000000002,217.006L205.92300000000003,220.871L197.15800000000002,212.106L247.464,189.783L257.156,199.475L234.834,249.781L226.068,241.016ZM244.58,202.36L223.292,212.323L234.616,223.64700000000002L244.58,202.36Z" opacity="0" stroke-width="1" transform="matrix(1,0,0,1,0,0)" id="id141529186072427" clip-path="url(#124AFC98-0E9A-46E6-8490-6DB7719F973E)"/><path style="opacity: 0;" fill="#000000" stroke="none" d="M258.736,273.684L264.507,253.64800000000002L258.845,247.98700000000002L245.94200000000004,260.89000000000004L238.21100000000004,253.15900000000005L274.52600000000007,216.84500000000006L291.51200000000006,233.83200000000005C299.07900000000006,241.39900000000006,298.80800000000005,251.03700000000003,292.0570000000001,257.78800000000007C285.68700000000007,264.1580000000001,278.1190000000001,263.5590000000001,273.27400000000006,260.5640000000001L267.6650000000001,282.6140000000001L258.736,273.684ZM284.162,249.782C287.156,246.788,286.666,242.595,283.61699999999996,239.54700000000003L275.45099999999996,231.38100000000003L265.65099999999995,241.18100000000004L273.8179999999999,249.34700000000004C276.866,252.396,281.059,252.886,284.162,249.782Z" opacity="0" stroke-width="1" transform="matrix(1,0,0,1,0,0)" id="id461529186072434" clip-path="url(#CD70497F-70C4-447A-B18A-54D81887BA9D)"/><path style="opacity: 0;" fill="#000000" stroke="none" d="M281.061,296.008L310.57,266.49899999999997L299.953,255.88199999999998L306.75899999999996,249.07599999999996L335.72399999999993,278.04099999999994L328.91799999999995,284.8469999999999L318.35499999999996,274.28399999999993L288.84599999999995,303.79299999999995L281.061,296.008Z" opacity="0" stroke-width="1" transform="matrix(1,0,0,1,0,0)" id="id741529186072451" clip-path="url(#793DFEA3-1F8F-469A-83BE-97205BEF617C)"/><path style="opacity: 0;" fill="#000000" stroke="none" d="M331.422,346.369L348.68100000000004,329.11L325.65100000000007,306.08000000000004L308.39200000000005,323.33900000000006L305.28800000000007,320.23500000000007L341.6020000000001,283.92100000000005L344.7060000000001,287.02500000000003L328.48100000000005,303.25000000000006L351.5110000000001,326.2800000000001L367.7360000000001,310.05500000000006L370.8400000000001,313.15900000000005L334.52600000000007,349.47300000000007L331.422,346.369Z" opacity="0" stroke-width="1" transform="matrix(1,0,0,1,0,0)" id="id111529186072456" clip-path="url(#9911E2BC-16EE-4A6A-88CA-D0F45FB379F0)"/><path style="opacity: 0;" fill="#000000" stroke="none" d="M352.819,367.767L386.302,334.284L374.434,322.416L377.26500000000004,319.585L404.16,346.47999999999996L401.329,349.311L389.46,337.44L355.977,370.923L352.819,367.767Z" opacity="0" stroke-width="1" transform="matrix(1,0,0,1,0,0)" id="id691529186072460" clip-path="url(#F7909272-A955-4CD4-AB52-F534A6BABDB0)"/><path style="opacity: 0;" fill="#000000" stroke="none" d="M405.088,420.035L437.483,387.64000000000004L391.858,406.80400000000003L390.661,405.607L409.77,359.927L377.375,392.322L374.272,389.219L410.586,352.905L415.214,357.53299999999996L397.356,400.10799999999995L439.877,382.19599999999997L444.56,386.87899999999996L408.246,423.193L405.088,420.035Z" opacity="0" stroke-width="1" transform="matrix(1,0,0,1,0,0)" id="id641529186072467" clip-path="url(#212DB752-C138-4715-BC62-62FA3F0C40B9)"/><path style="opacity: 0;" fill="#000000" stroke="none" d="M416.523,431.471L452.83700000000005,395.157L455.994,398.31399999999996L422.511,431.79699999999997L440.09700000000004,449.383L437.266,452.214L416.523,431.471Z" opacity="0" stroke-width="1" transform="matrix(1,0,0,1,0,0)" id="id461529186072472" clip-path="url(#BF098DD9-2943-41E6-BC92-8E0918E46235)"/><path style="opacity: 0;" fill="#000000" stroke="none" d="M448.429,452.813H452.566C451.587,458.47499999999997,452.89399999999995,463.485,457.57599999999996,468.167C462.85699999999997,473.448,470.479,473.44699999999995,475.433,468.493C480.932,462.99399999999997,480.496,455.808,475.27,450.582C471.94899999999996,447.26099999999997,468.029,445.519,462.912,445.3L461.551,441.98L480.60699999999997,422.92400000000004L501.568,443.88500000000005L498.73699999999997,446.71600000000007L480.88,428.85900000000004L466.67,443.069C470.208,443.123,474.944,444.593,478.701,448.35C484.79900000000004,454.44800000000004,486.269,463.975,478.702,471.54200000000003C471.461,478.783,461.442,477.694,454.746,470.99800000000005C448.701,464.955,447.339,458.911,448.429,452.813Z" opacity="0" stroke-width="1" transform="matrix(1,0,0,1,0,0)" id="id281529186072477" clip-path="url(#BDE468B1-1D54-4417-9C01-9EE18597F695)"/><path style="" fill="#cc0000" stroke="none" d="M470,0L532,0L587,55L587,117Z" stroke-width="1" transform="matrix(1,0,0,1,0,0)" id="id521529186072484" clip-path="url(#9EBFF18C-1CA7-4F2C-9313-9BF5CAC55F70)"/><path style="" fill="#cc0000" stroke="none" d="M504.561,13.174L510.30899999999997,7.425L508.241,5.356999999999999L509.567,4.030999999999999L515.21,9.674L513.883,11L511.82500000000005,8.942L506.07700000000006,14.690999999999999L504.561,13.174Z" stroke-width="1" transform="matrix(1,0,0,1,0,0)" id="id881529186072485" clip-path="url(#86D398FC-C2A6-4CFF-B668-1F36E422424C)"/><path style="" fill="#cc0000" stroke="none" d="M513.099,21.712L514.2230000000001,17.809L513.1200000000001,16.706L510.6060000000001,19.22L509.10000000000014,17.714L516.1740000000001,10.639L519.4830000000001,13.948C520.9580000000001,15.423,520.9040000000001,17.3,519.589,18.615000000000002C518.3480000000001,19.856,516.873,19.739,515.9290000000001,19.156000000000002L514.8370000000001,23.452L513.099,21.712ZM518.052,17.056C518.635,16.473000000000003,518.539,15.656,517.946,15.062000000000001L516.355,13.471000000000002L514.446,15.380000000000003L516.037,16.971000000000004C516.63,17.564,517.447,17.66,518.052,17.056Z" stroke-width="1" transform="matrix(1,0,0,1,0,0)" id="id011529186072486" clip-path="url(#6B8F280E-1926-4B32-9382-A0B0B7EA9BB9)"/><path style="" fill="#cc0000" stroke="none" d="M515.921,24.534L522.995,17.459L524.501,18.965L517.427,26.04L515.921,24.534Z" stroke-width="1" transform="matrix(1,0,0,1,0,0)" id="id271529186072488" clip-path="url(#401FD63F-8EC3-492A-9012-D1042AAEF538)"/><path style="" fill="#cc0000" stroke="none" d="M523.716,32.329L524.469,30.685000000000002L521.436,27.652L519.791,28.404L518.0840000000001,26.697L527.884,22.348L529.772,24.235999999999997L525.423,34.036L523.716,32.329ZM527.322,24.799L523.176,26.74L525.3810000000001,28.945L527.322,24.799Z" stroke-width="1" transform="matrix(1,0,0,1,0,0)" id="id921529186072489" clip-path="url(#208D1F58-0A62-479D-AC9B-088BC9027B23)"/><path style="" fill="#cc0000" stroke="none" d="M526.018,34.631L533.092,27.556L534.609,29.073L528.86,34.822L531.85,37.812000000000005L530.525,39.138000000000005L526.018,34.631Z" stroke-width="1" transform="matrix(1,0,0,1,0,0)" id="id001529186072490" clip-path="url(#4BDBB049-5FB1-4D12-BBB2-4CFD0906F047)"/><path style="" fill="#cc0000" stroke="none" d="M536.624,45.237L540.803,35.267L541.503,35.967000000000006L537.6850000000001,44.940000000000005L546.647,41.111000000000004L547.3470000000001,41.81100000000001L537.3770000000001,45.99000000000001L536.624,45.237Z" stroke-width="1" transform="matrix(1,0,0,1,0,0)" id="id001529186072491" clip-path="url(#678E9F6F-D2E1-4263-A1EF-1E0E284D07FB)"/><path style="" fill="#cc0000" stroke="none" d="M541.313,49.926L548.387,42.851L552.8729999999999,47.336999999999996L552.3209999999999,47.888999999999996L548.439,44.007L545.819,46.626999999999995L549.627,50.434999999999995L549.0759999999999,50.986999999999995L545.2679999999999,47.178999999999995L542.4669999999999,49.97899999999999L546.3489999999998,53.86099999999999L545.7979999999998,54.41299999999999L541.313,49.926Z" stroke-width="1" transform="matrix(1,0,0,1,0,0)" id="id321529186072492" clip-path="url(#185C5EE5-24F6-46E3-91C6-2BE1620E5657)"/><path style="" fill="#cc0000" stroke="none" d="M551.441,60.055L552.384,55.144L550.8240000000001,53.583999999999996L547.897,56.51199999999999L547.293,55.907999999999994L554.367,48.83299999999999L557.0079999999999,51.47399999999999C558.228,52.69399999999999,558.386,54.40099999999999,557.0919999999999,55.69499999999999C555.8089999999999,56.977999999999994,554.1959999999999,56.788,553.0939999999998,55.769999999999996L552.1709999999998,60.787L551.441,60.055ZM556.458,55.059C557.3489999999999,54.168,557.3489999999999,52.916,556.405,51.973L554.4209999999999,49.989L551.377,53.032999999999994L553.361,55.016999999999996C554.305,55.96,555.567,55.95,556.458,55.059Z" stroke-width="1" transform="matrix(1,0,0,1,0,0)" id="id321529186072493" clip-path="url(#8201E054-025A-4432-9F66-B4D5008FEC2D)"/><path style="" fill="#cc0000" stroke="none" d="M554.199,60.818L555.0469999999999,60.754C554.983,61.73,555.2159999999999,62.980999999999995,556.2349999999999,64C557.6769999999999,65.442,558.8979999999999,65.05,559.5029999999999,64.446C561.5809999999999,62.367,556.2579999999999,59.207,558.7289999999999,56.736C559.8849999999999,55.58,561.656,55.887,562.939,57.169999999999995C563.9889999999999,58.21999999999999,564.424,59.397999999999996,564.3389999999999,60.565L563.4899999999999,60.607C563.5959999999999,59.483,563.1509999999998,58.485,562.3559999999999,57.69C561.4119999999999,56.745999999999995,560.1599999999999,56.576,559.3959999999998,57.339C557.5819999999999,59.152,562.8209999999998,62.397999999999996,560.1799999999998,65.039C559.2679999999998,65.95100000000001,557.5719999999999,66.44,555.6609999999998,64.53C554.495,63.363,554.092,62.005,554.199,60.818Z" stroke-width="1" transform="matrix(1,0,0,1,0,0)" id="id651529186072495" clip-path="url(#32086712-EDE9-4575-ACB8-1B701504ADBE)"/><path style="" fill="#cc0000" stroke="none" d="M559.757,68.37L566.8309999999999,61.295L567.435,61.899L560.361,68.974L559.757,68.37Z" stroke-width="1" transform="matrix(1,0,0,1,0,0)" id="id871529186072497" clip-path="url(#DACF8639-DDFA-4F22-8665-98F2CDAD3BC4)"/><path style="" fill="#cc0000" stroke="none" d="M565.389,66.938C567.457,64.87,570.4060000000001,64.636,572.484,66.714C574.552,68.782,574.331,71.743,572.2620000000001,73.81099999999999C570.195,75.87899999999999,567.234,76.101,565.1650000000001,74.03299999999999C563.087,71.955,563.321,69.007,565.389,66.938ZM571.625,73.175C573.418,71.383,573.63,68.964,571.933,67.267C570.226,65.56,567.818,65.782,566.025,67.575C564.244,69.357,564.01,71.776,565.717,73.483C567.414,75.179,569.844,74.957,571.625,73.175Z" stroke-width="1" transform="matrix(1,0,0,1,0,0)" id="id351529186072502" clip-path="url(#D3FBAA1B-03B0-43E0-8E3B-0C9F622FBD36)"/><path style="" fill="#cc0000" stroke="none" d="M575.284,83.897L576.906,73.364L570.829,79.44200000000001L570.2249999999999,78.83800000000001L577.2989999999999,71.763L577.9139999999999,72.378L576.3549999999999,82.804L582.3469999999999,76.811L582.9509999999999,77.415L575.877,84.49000000000001L575.284,83.897Z" stroke-width="1" transform="matrix(1,0,0,1,0,0)" id="id871529186072505" clip-path="url(#585F10D0-B8FE-4FAE-BB66-BDFB1BB93EAC)"/><path style="opacity: 0;" fill="#000000" stroke="none" d="M88.701,103.649L125.01499999999999,67.33500000000001L132.79999999999998,75.12L103.29099999999998,104.629L118.64399999999998,119.982L111.83799999999998,126.788L88.701,103.649Z" opacity="0" stroke-width="1" transform="matrix(1,0,0,1,0,0)" id="id221529186072506" clip-path="url(#FE6BDD02-4525-4827-A076-BC31569159CB)"/><path style="opacity: 0;" fill="#000000" stroke="none" d="M117.068,132.016L153.382,95.702L161.112,103.432L124.798,139.746L117.068,132.016Z" opacity="0" stroke-width="1" transform="matrix(1,0,0,1,0,0)" id="id301529186072507" clip-path="url(#5988DC75-A245-4D2F-9C78-79080030CEBB)"/><path style="opacity: 0;" fill="#000000" stroke="none" d="M142.167,157.114L164.49,106.808L173.255,115.57300000000001L155.453,153.522L193.4,135.718L202.16500000000002,144.483L151.85900000000004,166.806L142.167,157.114Z" opacity="0" stroke-width="1" transform="matrix(1,0,0,1,0,0)" id="id171529186072508" clip-path="url(#23F2C3D3-9F1A-4D77-A9A8-760862C5046E)"/><path style="opacity: 0;" fill="#000000" stroke="none" d="M169.227,184.175L205.541,147.86100000000002L231.238,173.55800000000002L224.432,180.36400000000003L206.46499999999997,162.39700000000005L198.84299999999996,170.01900000000006L216.42899999999997,187.60500000000008L209.62299999999996,194.4110000000001L192.03699999999998,176.8250000000001L183.76199999999997,185.1000000000001L201.72899999999998,203.06700000000012L194.92299999999997,209.87300000000013L169.227,184.175Z" opacity="0" stroke-width="1" transform="matrix(1,0,0,1,0,0)" id="id501529186072509" clip-path="url(#FD801F14-4132-4502-BDC7-3F7268A70073)"/><path style="opacity: 0;" fill="#000000" stroke="none" d="M226.068,241.016L229.93300000000002,232.577L214.36200000000002,217.006L205.92300000000003,220.871L197.15800000000002,212.106L247.464,189.783L257.156,199.475L234.834,249.781L226.068,241.016ZM244.58,202.36L223.292,212.323L234.616,223.64700000000002L244.58,202.36Z" opacity="0" stroke-width="1" transform="matrix(1,0,0,1,0,0)" id="id501529186072510" clip-path="url(#ADAEBFC6-6ED4-46A7-B49A-CBFDD34AA8F3)"/><path style="opacity: 0;" fill="#000000" stroke="none" d="M258.736,273.684L264.507,253.64800000000002L258.845,247.98700000000002L245.94200000000004,260.89000000000004L238.21100000000004,253.15900000000005L274.52600000000007,216.84500000000006L291.51200000000006,233.83200000000005C299.07900000000006,241.39900000000006,298.80800000000005,251.03700000000003,292.0570000000001,257.78800000000007C285.68700000000007,264.1580000000001,278.1190000000001,263.5590000000001,273.27400000000006,260.5640000000001L267.6650000000001,282.6140000000001L258.736,273.684ZM284.162,249.782C287.156,246.788,286.666,242.595,283.61699999999996,239.54700000000003L275.45099999999996,231.38100000000003L265.65099999999995,241.18100000000004L273.8179999999999,249.34700000000004C276.866,252.396,281.059,252.886,284.162,249.782Z" opacity="0" stroke-width="1" transform="matrix(1,0,0,1,0,0)" id="id111529186072515" clip-path="url(#C706012D-BADC-4D89-8072-C044F3088D83)"/><path style="opacity: 0;" fill="#000000" stroke="none" d="M281.061,296.008L310.57,266.49899999999997L299.953,255.88199999999998L306.75899999999996,249.07599999999996L335.72399999999993,278.04099999999994L328.91799999999995,284.8469999999999L318.35499999999996,274.28399999999993L288.84599999999995,303.79299999999995L281.061,296.008Z" opacity="0" stroke-width="1" transform="matrix(1,0,0,1,0,0)" id="id691529186072517" clip-path="url(#D750BE32-0EDB-4C30-A0F2-EF2336219EDC)"/><path style="opacity: 0;" fill="#000000" stroke="none" d="M331.422,346.369L348.68100000000004,329.11L325.65100000000007,306.08000000000004L308.39200000000005,323.33900000000006L305.28800000000007,320.23500000000007L341.6020000000001,283.92100000000005L344.7060000000001,287.02500000000003L328.48100000000005,303.25000000000006L351.5110000000001,326.2800000000001L367.7360000000001,310.05500000000006L370.8400000000001,313.15900000000005L334.52600000000007,349.47300000000007L331.422,346.369Z" opacity="0" stroke-width="1" transform="matrix(1,0,0,1,0,0)" id="id161529186072518" clip-path="url(#5F457A4C-AB4C-462A-9983-B478DB85800A)"/><path style="opacity: 0;" fill="#000000" stroke="none" d="M352.819,367.767L386.302,334.284L374.434,322.416L377.26500000000004,319.585L404.16,346.47999999999996L401.329,349.311L389.46,337.44L355.977,370.923L352.819,367.767Z" opacity="0" stroke-width="1" transform="matrix(1,0,0,1,0,0)" id="id201529186072521" clip-path="url(#4FD2C608-7CEB-44A1-B7C1-2FCBB0E2509B)"/><path style="opacity: 0;" fill="#000000" stroke="none" d="M405.088,420.035L437.483,387.64000000000004L391.858,406.80400000000003L390.661,405.607L409.77,359.927L377.375,392.322L374.272,389.219L410.586,352.905L415.214,357.53299999999996L397.356,400.10799999999995L439.877,382.19599999999997L444.56,386.87899999999996L408.246,423.193L405.088,420.035Z" opacity="0" stroke-width="1" transform="matrix(1,0,0,1,0,0)" id="id501529186072522" clip-path="url(#7D23E498-2AFF-43C0-A601-A0F28D446675)"/><path style="opacity: 0;" fill="#000000" stroke="none" d="M416.523,431.471L452.83700000000005,395.157L455.994,398.31399999999996L422.511,431.79699999999997L440.09700000000004,449.383L437.266,452.214L416.523,431.471Z" opacity="0" stroke-width="1" transform="matrix(1,0,0,1,0,0)" id="id701529186072523" clip-path="url(#B3BF0DA9-1A91-4FC5-919F-6DCDEF0A0529)"/><path style="opacity: 0;" fill="#000000" stroke="none" d="M448.429,452.813H452.566C451.587,458.47499999999997,452.89399999999995,463.485,457.57599999999996,468.167C462.85699999999997,473.448,470.479,473.44699999999995,475.433,468.493C480.932,462.99399999999997,480.496,455.808,475.27,450.582C471.94899999999996,447.26099999999997,468.029,445.519,462.912,445.3L461.551,441.98L480.60699999999997,422.92400000000004L501.568,443.88500000000005L498.73699999999997,446.71600000000007L480.88,428.85900000000004L466.67,443.069C470.208,443.123,474.944,444.593,478.701,448.35C484.79900000000004,454.44800000000004,486.269,463.975,478.702,471.54200000000003C471.461,478.783,461.442,477.694,454.746,470.99800000000005C448.701,464.955,447.339,458.911,448.429,452.813Z" opacity="0" stroke-width="1" transform="matrix(1,0,0,1,0,0)" id="id521529186072524" clip-path="url(#FD925A63-9620-448C-830B-D442BBF60471)"/><path style="" fill="#cc0000" stroke="none" d="M470,0L532,0L587,55L587,117Z" id="id261529186072526" stroke-width="1" clip-path="url(#A253A6B7-C914-4FA8-BEFA-6AB47E8C2BBD)"/><path style="" fill="#cc0000" stroke="none" d="M504.561,13.174L510.30899999999997,7.425L508.241,5.356999999999999L509.567,4.030999999999999L515.21,9.674L513.883,11L511.82500000000005,8.942L506.07700000000006,14.690999999999999L504.561,13.174Z" id="id751529186072527" stroke-width="1" clip-path="url(#29129FF2-332A-4EF8-83E9-530FCB723B28)"/><path style="" fill="#cc0000" stroke="none" d="M513.099,21.712L514.2230000000001,17.809L513.1200000000001,16.706L510.6060000000001,19.22L509.10000000000014,17.714L516.1740000000001,10.639L519.4830000000001,13.948C520.9580000000001,15.423,520.9040000000001,17.3,519.589,18.615000000000002C518.3480000000001,19.856,516.873,19.739,515.9290000000001,19.156000000000002L514.8370000000001,23.452L513.099,21.712ZM518.052,17.056C518.635,16.473000000000003,518.539,15.656,517.946,15.062000000000001L516.355,13.471000000000002L514.446,15.380000000000003L516.037,16.971000000000004C516.63,17.564,517.447,17.66,518.052,17.056Z" id="id481529186072528" stroke-width="1" clip-path="url(#7551753C-7AD5-4F56-8B06-2956F44BDD4E)"/><path style="" fill="#cc0000" stroke="none" d="M515.921,24.534L522.995,17.459L524.501,18.965L517.427,26.04L515.921,24.534Z" id="id851529186072530" stroke-width="1" clip-path="url(#29FDBD56-353F-4911-843A-AA33EBAA5D0B)"/><path style="" fill="#cc0000" stroke="none" d="M523.716,32.329L524.469,30.685000000000002L521.436,27.652L519.791,28.404L518.0840000000001,26.697L527.884,22.348L529.772,24.235999999999997L525.423,34.036L523.716,32.329ZM527.322,24.799L523.176,26.74L525.3810000000001,28.945L527.322,24.799Z" id="id301529186072531" stroke-width="1" clip-path="url(#FC092229-E766-4AA4-812A-7D0976319238)"/><path style="" fill="#cc0000" stroke="none" d="M526.018,34.631L533.092,27.556L534.609,29.073L528.86,34.822L531.85,37.812000000000005L530.525,39.138000000000005L526.018,34.631Z" id="id841529186072532" stroke-width="1" clip-path="url(#806DED3C-F0DB-423E-8819-BA977796A93B)"/><path style="" fill="#cc0000" stroke="none" d="M536.624,45.237L540.803,35.267L541.503,35.967000000000006L537.6850000000001,44.940000000000005L546.647,41.111000000000004L547.3470000000001,41.81100000000001L537.3770000000001,45.99000000000001L536.624,45.237Z" id="id201529186072534" stroke-width="1" clip-path="url(#58D39564-5970-48E5-B718-5BB319C10A12)"/><path style="" fill="#cc0000" stroke="none" d="M541.313,49.926L548.387,42.851L552.8729999999999,47.336999999999996L552.3209999999999,47.888999999999996L548.439,44.007L545.819,46.626999999999995L549.627,50.434999999999995L549.0759999999999,50.986999999999995L545.2679999999999,47.178999999999995L542.4669999999999,49.97899999999999L546.3489999999998,53.86099999999999L545.7979999999998,54.41299999999999L541.313,49.926Z" id="id061529186072535" stroke-width="1" clip-path="url(#DF7C108F-C744-4D6F-AE19-92DDAB20C347)"/><path style="" fill="#cc0000" stroke="none" d="M551.441,60.055L552.384,55.144L550.8240000000001,53.583999999999996L547.897,56.51199999999999L547.293,55.907999999999994L554.367,48.83299999999999L557.0079999999999,51.47399999999999C558.228,52.69399999999999,558.386,54.40099999999999,557.0919999999999,55.69499999999999C555.8089999999999,56.977999999999994,554.1959999999999,56.788,553.0939999999998,55.769999999999996L552.1709999999998,60.787L551.441,60.055ZM556.458,55.059C557.3489999999999,54.168,557.3489999999999,52.916,556.405,51.973L554.4209999999999,49.989L551.377,53.032999999999994L553.361,55.016999999999996C554.305,55.96,555.567,55.95,556.458,55.059Z" id="id011529186072536" stroke-width="1" clip-path="url(#DA5BEFB2-A4F5-4729-A1B7-81A05B98B032)"/><path style="" fill="#cc0000" stroke="none" d="M554.199,60.818L555.0469999999999,60.754C554.983,61.73,555.2159999999999,62.980999999999995,556.2349999999999,64C557.6769999999999,65.442,558.8979999999999,65.05,559.5029999999999,64.446C561.5809999999999,62.367,556.2579999999999,59.207,558.7289999999999,56.736C559.8849999999999,55.58,561.656,55.887,562.939,57.169999999999995C563.9889999999999,58.21999999999999,564.424,59.397999999999996,564.3389999999999,60.565L563.4899999999999,60.607C563.5959999999999,59.483,563.1509999999998,58.485,562.3559999999999,57.69C561.4119999999999,56.745999999999995,560.1599999999999,56.576,559.3959999999998,57.339C557.5819999999999,59.152,562.8209999999998,62.397999999999996,560.1799999999998,65.039C559.2679999999998,65.95100000000001,557.5719999999999,66.44,555.6609999999998,64.53C554.495,63.363,554.092,62.005,554.199,60.818Z" id="id851529186072537" stroke-width="1" clip-path="url(#FB66CD4B-8E58-4822-ACA1-5A028882E93B)"/><path style="" fill="#cc0000" stroke="none" d="M559.757,68.37L566.8309999999999,61.295L567.435,61.899L560.361,68.974L559.757,68.37Z" id="id231529186072539" stroke-width="1" clip-path="url(#9B9A9CD2-24CA-42E4-BAF5-CE3B3377D55B)"/><path style="" fill="#cc0000" stroke="none" d="M565.389,66.938C567.457,64.87,570.4060000000001,64.636,572.484,66.714C574.552,68.782,574.331,71.743,572.2620000000001,73.81099999999999C570.195,75.87899999999999,567.234,76.101,565.1650000000001,74.03299999999999C563.087,71.955,563.321,69.007,565.389,66.938ZM571.625,73.175C573.418,71.383,573.63,68.964,571.933,67.267C570.226,65.56,567.818,65.782,566.025,67.575C564.244,69.357,564.01,71.776,565.717,73.483C567.414,75.179,569.844,74.957,571.625,73.175Z" id="id781529186072544" stroke-width="1" clip-path="url(#A1E782DF-B439-4520-B60E-339C453CE4C0)"/><path style="" fill="#cc0000" stroke="none" d="M575.284,83.897L576.906,73.364L570.829,79.44200000000001L570.2249999999999,78.83800000000001L577.2989999999999,71.763L577.9139999999999,72.378L576.3549999999999,82.804L582.3469999999999,76.811L582.9509999999999,77.415L575.877,84.49000000000001L575.284,83.897Z" id="id411529186072545" stroke-width="1" clip-path="url(#C124B754-FB62-4DB5-A708-8FD2C8834789)"/><path style="opacity: 0;" fill="#000000" stroke="none" d="M88.701,103.649L125.01499999999999,67.33500000000001L132.79999999999998,75.12L103.29099999999998,104.629L118.64399999999998,119.982L111.83799999999998,126.788L88.701,103.649Z" opacity="0" id="id391529186072547" stroke-width="1" clip-path="url(#9BC87B79-1BE6-4881-A90A-A239FE33141B)"/><path style="opacity: 0;" fill="#000000" stroke="none" d="M117.068,132.016L153.382,95.702L161.112,103.432L124.798,139.746L117.068,132.016Z" opacity="0" id="id371529186072548" stroke-width="1" clip-path="url(#A4EA2D5A-791F-48CC-B221-BB8F02E067C9)"/><path style="opacity: 0;" fill="#000000" stroke="none" d="M142.167,157.114L164.49,106.808L173.255,115.57300000000001L155.453,153.522L193.4,135.718L202.16500000000002,144.483L151.85900000000004,166.806L142.167,157.114Z" opacity="0" id="id221529186072549" stroke-width="1" clip-path="url(#CEBA7647-A208-4BB7-9C36-01935859FF54)"/><path style="opacity: 0;" fill="#000000" stroke="none" d="M169.227,184.175L205.541,147.86100000000002L231.238,173.55800000000002L224.432,180.36400000000003L206.46499999999997,162.39700000000005L198.84299999999996,170.01900000000006L216.42899999999997,187.60500000000008L209.62299999999996,194.4110000000001L192.03699999999998,176.8250000000001L183.76199999999997,185.1000000000001L201.72899999999998,203.06700000000012L194.92299999999997,209.87300000000013L169.227,184.175Z" opacity="0" id="id071529186072555" stroke-width="1" clip-path="url(#80A59A1A-89C5-410F-ACEE-F066D5E483F9)"/><path style="opacity: 0;" fill="#000000" stroke="none" d="M226.068,241.016L229.93300000000002,232.577L214.36200000000002,217.006L205.92300000000003,220.871L197.15800000000002,212.106L247.464,189.783L257.156,199.475L234.834,249.781L226.068,241.016ZM244.58,202.36L223.292,212.323L234.616,223.64700000000002L244.58,202.36Z" opacity="0" id="id841529186072557" stroke-width="1" clip-path="url(#6B1863A7-44A3-4CD8-9C1D-BEC77A0887D4)"/><path style="opacity: 0;" fill="#000000" stroke="none" d="M258.736,273.684L264.507,253.64800000000002L258.845,247.98700000000002L245.94200000000004,260.89000000000004L238.21100000000004,253.15900000000005L274.52600000000007,216.84500000000006L291.51200000000006,233.83200000000005C299.07900000000006,241.39900000000006,298.80800000000005,251.03700000000003,292.0570000000001,257.78800000000007C285.68700000000007,264.1580000000001,278.1190000000001,263.5590000000001,273.27400000000006,260.5640000000001L267.6650000000001,282.6140000000001L258.736,273.684ZM284.162,249.782C287.156,246.788,286.666,242.595,283.61699999999996,239.54700000000003L275.45099999999996,231.38100000000003L265.65099999999995,241.18100000000004L273.8179999999999,249.34700000000004C276.866,252.396,281.059,252.886,284.162,249.782Z" opacity="0" id="id061529186072558" stroke-width="1" clip-path="url(#5D63D5A2-D952-4C05-8D2E-B33718F2958F)"/><path style="opacity: 0;" fill="#000000" stroke="none" d="M281.061,296.008L310.57,266.49899999999997L299.953,255.88199999999998L306.75899999999996,249.07599999999996L335.72399999999993,278.04099999999994L328.91799999999995,284.8469999999999L318.35499999999996,274.28399999999993L288.84599999999995,303.79299999999995L281.061,296.008Z" opacity="0" id="id051529186072560" stroke-width="1" clip-path="url(#B0F3EE06-4665-46D7-8DE0-11A6A574D9E3)"/><path style="opacity: 0;" fill="#000000" stroke="none" d="M331.422,346.369L348.68100000000004,329.11L325.65100000000007,306.08000000000004L308.39200000000005,323.33900000000006L305.28800000000007,320.23500000000007L341.6020000000001,283.92100000000005L344.7060000000001,287.02500000000003L328.48100000000005,303.25000000000006L351.5110000000001,326.2800000000001L367.7360000000001,310.05500000000006L370.8400000000001,313.15900000000005L334.52600000000007,349.47300000000007L331.422,346.369Z" opacity="0" id="id461529186072562" stroke-width="1" clip-path="url(#BB482125-5E63-4786-9E49-BEB8483BC05D)"/><path style="opacity: 0;" fill="#000000" stroke="none" d="M352.819,367.767L386.302,334.284L374.434,322.416L377.26500000000004,319.585L404.16,346.47999999999996L401.329,349.311L389.46,337.44L355.977,370.923L352.819,367.767Z" opacity="0" id="id351529186072564" stroke-width="1" clip-path="url(#A259C69C-FA2A-4440-A538-880945EB673E)"/><path style="opacity: 0;" fill="#000000" stroke="none" d="M405.088,420.035L437.483,387.64000000000004L391.858,406.80400000000003L390.661,405.607L409.77,359.927L377.375,392.322L374.272,389.219L410.586,352.905L415.214,357.53299999999996L397.356,400.10799999999995L439.877,382.19599999999997L444.56,386.87899999999996L408.246,423.193L405.088,420.035Z" opacity="0" id="id771529186072566" stroke-width="1" clip-path="url(#1CF60B2F-5A14-4592-965C-3068E8078FAE)"/><path style="opacity: 0;" fill="#000000" stroke="none" d="M416.523,431.471L452.83700000000005,395.157L455.994,398.31399999999996L422.511,431.79699999999997L440.09700000000004,449.383L437.266,452.214L416.523,431.471Z" opacity="0" id="id921529186072567" stroke-width="1" clip-path="url(#12EAAAE8-AC00-49AA-9821-A29FD75566CC)"/><path style="opacity: 0;" fill="#000000" stroke="none" d="M448.429,452.813H452.566C451.587,458.47499999999997,452.89399999999995,463.485,457.57599999999996,468.167C462.85699999999997,473.448,470.479,473.44699999999995,475.433,468.493C480.932,462.99399999999997,480.496,455.808,475.27,450.582C471.94899999999996,447.26099999999997,468.029,445.519,462.912,445.3L461.551,441.98L480.60699999999997,422.92400000000004L501.568,443.88500000000005L498.73699999999997,446.71600000000007L480.88,428.85900000000004L466.67,443.069C470.208,443.123,474.944,444.593,478.701,448.35C484.79900000000004,454.44800000000004,486.269,463.975,478.702,471.54200000000003C471.461,478.783,461.442,477.694,454.746,470.99800000000005C448.701,464.955,447.339,458.911,448.429,452.813Z" opacity="0" id="id201529186072569" stroke-width="1" clip-path="url(#AC9D85F3-E5A3-4A7C-A00C-AAAE673DF268)"/><rect x="170" y="75" width="240" height="410" r="0" rx="0" ry="0" fill="none" stroke="#808080" id="printingArea" style="display: none;" laservice="true" stroke-width="1" display="none"/><g id="Layer">	<polygon fill="#CC0000" points="470,0 532,0 587,55 587,117  "/>	<g>		<path fill="#CC0000" d="M504.561,13.174l5.748-5.749l-2.068-2.068l1.326-1.326l5.643,5.643L513.883,11l-2.058-2.058l-5.748,5.749   L504.561,13.174z"/>		<path fill="#CC0000" d="M513.099,21.712l1.124-3.903l-1.103-1.103l-2.514,2.514l-1.506-1.506l7.074-7.075l3.309,3.309   c1.475,1.475,1.421,3.352,0.106,4.667c-1.241,1.241-2.716,1.124-3.66,0.541l-1.092,4.296L513.099,21.712z M518.052,17.056   c0.583-0.583,0.487-1.4-0.106-1.994l-1.591-1.591l-1.909,1.909l1.591,1.591C516.63,17.564,517.447,17.66,518.052,17.056z"/>		<path fill="#CC0000" d="M515.921,24.534l7.074-7.075l1.506,1.506l-7.074,7.075L515.921,24.534z"/>		<path fill="#CC0000" d="M523.716,32.329l0.753-1.644l-3.033-3.033l-1.645,0.752l-1.707-1.707l9.8-4.349l1.888,1.888l-4.349,9.8   L523.716,32.329z M527.322,24.799l-4.146,1.941l2.205,2.205L527.322,24.799z"/>		<path fill="#CC0000" d="M526.018,34.631l7.074-7.075l1.517,1.517l-5.749,5.749l2.99,2.99l-1.325,1.326L526.018,34.631z"/>		<path fill="#CC0000" d="M536.624,45.237l4.179-9.97l0.7,0.7l-3.818,8.973l8.962-3.829l0.7,0.7l-9.97,4.179L536.624,45.237z"/>		<path fill="#CC0000" d="M541.313,49.926l7.074-7.075l4.486,4.486l-0.552,0.552l-3.882-3.882l-2.62,2.62l3.808,3.808l-0.551,0.552   l-3.808-3.808l-2.801,2.8l3.882,3.882l-0.551,0.552L541.313,49.926z"/>		<path fill="#CC0000" d="M551.441,60.055l0.943-4.911l-1.56-1.56l-2.927,2.928l-0.604-0.604l7.074-7.075l2.641,2.641   c1.22,1.22,1.378,2.927,0.084,4.221c-1.283,1.283-2.896,1.093-3.998,0.075l-0.923,5.017L551.441,60.055z M556.458,55.059   c0.891-0.891,0.891-2.143-0.053-3.086l-1.984-1.984l-3.044,3.044l1.984,1.984C554.305,55.96,555.567,55.95,556.458,55.059z"/>		<path fill="#CC0000" d="M554.199,60.818l0.848-0.064c-0.064,0.976,0.169,2.227,1.188,3.246c1.442,1.442,2.663,1.05,3.268,0.446   c2.078-2.079-3.245-5.239-0.774-7.71c1.156-1.156,2.927-0.849,4.21,0.434c1.05,1.05,1.485,2.228,1.4,3.395l-0.849,0.042   c0.106-1.124-0.339-2.122-1.134-2.917c-0.944-0.944-2.196-1.114-2.96-0.351c-1.814,1.813,3.425,5.059,0.784,7.7   c-0.912,0.912-2.608,1.401-4.519-0.509C554.495,63.363,554.092,62.005,554.199,60.818z"/>		<path fill="#CC0000" d="M559.757,68.37l7.074-7.075l0.604,0.604l-7.074,7.075L559.757,68.37z"/>		<path fill="#CC0000" d="M565.389,66.938c2.068-2.068,5.017-2.302,7.095-0.224c2.068,2.068,1.847,5.029-0.222,7.097   c-2.067,2.068-5.028,2.29-7.097,0.222C563.087,71.955,563.321,69.007,565.389,66.938z M571.625,73.175   c1.793-1.792,2.005-4.211,0.308-5.908c-1.707-1.707-4.115-1.485-5.908,0.308c-1.781,1.782-2.015,4.201-0.308,5.908   C567.414,75.179,569.844,74.957,571.625,73.175z"/>		<path fill="#CC0000" d="M575.284,83.897l1.622-10.533l-6.077,6.078l-0.604-0.604l7.074-7.075l0.615,0.615l-1.559,10.426   l5.992-5.993l0.604,0.604l-7.074,7.075L575.284,83.897z"/>	</g>	<g opacity="0">		<path d="M88.701,103.649l36.314-36.314l7.785,7.785l-29.509,29.509l15.353,15.353l-6.806,6.806L88.701,103.649z"/>		<path d="M117.068,132.016l36.314-36.314l7.73,7.73l-36.314,36.314L117.068,132.016z"/>		<path d="M142.167,157.114l22.323-50.306l8.765,8.765l-17.802,37.949l37.947-17.804l8.765,8.765l-50.306,22.323L142.167,157.114z"/>		<path d="M169.227,184.175l36.314-36.314l25.697,25.697l-6.806,6.806l-17.967-17.967l-7.622,7.622l17.586,17.586l-6.806,6.806   l-17.586-17.586l-8.275,8.275l17.967,17.967l-6.806,6.806L169.227,184.175z"/>		<path d="M226.068,241.016l3.865-8.439l-15.571-15.571l-8.439,3.865l-8.765-8.765l50.306-22.323l9.692,9.692l-22.322,50.306   L226.068,241.016z M244.58,202.36l-21.288,9.963l11.324,11.324L244.58,202.36z"/>		<path d="M258.736,273.684l5.771-20.036l-5.662-5.661l-12.903,12.903l-7.731-7.731l36.315-36.314l16.986,16.987   c7.567,7.567,7.296,17.205,0.545,23.956c-6.37,6.37-13.938,5.771-18.783,2.776l-5.609,22.05L258.736,273.684z M284.162,249.782   c2.994-2.994,2.504-7.187-0.545-10.235l-8.166-8.166l-9.8,9.8l8.167,8.166C276.866,252.396,281.059,252.886,284.162,249.782z"/>		<path d="M281.061,296.008l29.509-29.509l-10.617-10.617l6.806-6.806l28.965,28.965l-6.806,6.806l-10.563-10.563l-29.509,29.509   L281.061,296.008z"/>		<path d="M331.422,346.369l17.259-17.259l-23.03-23.03l-17.259,17.259l-3.104-3.104l36.314-36.314l3.104,3.104l-16.225,16.225   l23.03,23.03l16.225-16.225l3.104,3.104l-36.314,36.314L331.422,346.369z"/>		<path d="M352.819,367.767l33.483-33.483l-11.868-11.868l2.831-2.831l26.895,26.895l-2.831,2.831L389.46,337.44l-33.483,33.483   L352.819,367.767z"/>		<path d="M405.088,420.035l32.395-32.395l-45.625,19.164l-1.197-1.197l19.109-45.68l-32.395,32.395l-3.103-3.103l36.314-36.314   l4.628,4.628l-17.858,42.575l42.521-17.912l4.683,4.683l-36.314,36.314L405.088,420.035z"/>		<path d="M416.523,431.471l36.314-36.314l3.157,3.157l-33.483,33.483l17.586,17.586l-2.831,2.831L416.523,431.471z"/>		<path d="M448.429,452.813h4.137c-0.979,5.662,0.328,10.672,5.01,15.354c5.281,5.281,12.903,5.28,17.857,0.326   c5.499-5.499,5.063-12.685-0.163-17.911c-3.321-3.321-7.241-5.063-12.358-5.282l-1.361-3.32l19.056-19.056l20.961,20.961   l-2.831,2.831l-17.857-17.857l-14.21,14.21c3.538,0.054,8.274,1.524,12.031,5.281c6.098,6.098,7.568,15.625,0.001,23.192   c-7.241,7.241-17.26,6.152-23.956-0.544C448.701,464.955,447.339,458.911,448.429,452.813z"/>	</g></g></svg>
